<svg width="1020" height="1020" viewBox="0 0 1020 1020" fill="none" xmlns="http://www.w3.org/2000/svg">
<path d="M493.614 347.5C493.614 347.5 545.295 314.981 603.155 316.791C695.313 319.669 743.211 382.684 743.284 382.781C743.284 382.781 801.514 451.891 782.155 542.831C766.605 615.871 704.404 788.69 688.134 817.621C671.864 846.551 642.394 876.923 597.184 882.343C535.878 889.692 494.864 832.784 494.725 832.592C494.694 832.633 449.309 893.109 392.098 886.249C346.898 880.829 317.564 846.551 301.294 817.621C285.024 788.69 222.835 615.871 207.275 542.831C187.915 451.891 246.145 382.781 246.145 382.781C246.27 382.617 294.155 319.667 386.275 316.791C444.063 314.983 493.509 347.431 493.614 347.5Z" fill="white"/>
<path d="M631.619 119.507C723.679 120.261 763.612 183.076 763.612 183.076C763.428 183.248 702.42 240.295 636.744 240.295C573.025 240.295 546.703 213.351 514.074 186.083L494.702 328.921L510.896 183.444C510.896 183.444 539.56 118.744 631.619 119.507Z" fill="white"/>
<path d="M542.833 462.705C544.262 462.718 545.685 462.814 547.095 462.991C547.33 463.02 547.564 463.052 547.798 463.085C548.5 463.187 549.198 463.307 549.892 463.448C550.354 463.541 550.813 463.644 551.271 463.754C551.795 463.881 552.315 464.019 552.832 464.167C553.218 464.278 553.602 464.394 553.984 464.517C554.653 464.732 555.315 464.965 555.969 465.216C556.405 465.384 556.837 465.559 557.266 465.742C557.515 465.848 557.762 465.958 558.009 466.07C558.464 466.276 558.914 466.491 559.359 466.714C560.124 467.098 560.874 467.505 561.607 467.938C562.123 468.243 562.63 468.563 563.129 468.892C563.283 468.994 563.436 469.097 563.588 469.201C563.811 469.353 564.033 469.507 564.252 469.663C564.409 469.776 564.564 469.891 564.719 470.005C565.167 470.337 565.607 470.678 566.037 471.03C566.498 471.406 566.947 471.795 567.385 472.194C567.84 472.608 568.283 473.033 568.713 473.47C568.842 473.601 568.97 473.732 569.097 473.865C569.656 474.452 570.195 475.045 570.715 475.642C571.284 476.295 571.828 476.954 572.35 477.619C573.259 478.776 574.099 479.95 574.868 481.141C575.055 481.43 575.237 481.721 575.415 482.012C575.623 482.35 575.826 482.689 576.023 483.03C576.436 483.746 576.823 484.468 577.188 485.196C577.576 485.97 577.939 486.75 578.273 487.537C578.915 489.049 579.458 490.585 579.902 492.142C580.355 493.725 580.706 495.33 580.957 496.956C581.135 498.108 581.263 499.271 581.342 500.444C581.405 501.382 581.438 502.327 581.439 503.279C581.439 503.517 581.436 503.755 581.433 503.994C581.414 505.186 581.348 506.389 581.234 507.601C581.027 509.783 580.665 511.996 580.153 514.237C579.926 515.232 579.67 516.234 579.383 517.241C579.288 517.575 579.189 517.907 579.086 518.238C578.78 519.223 578.44 520.191 578.069 521.142C578.02 521.269 577.968 521.394 577.917 521.52C577.843 521.705 577.77 521.891 577.693 522.076C577.671 522.129 577.648 522.181 577.626 522.234C577.387 522.802 577.138 523.363 576.876 523.917C576.857 523.958 576.838 523.997 576.818 524.038C576.543 524.617 576.255 525.188 575.956 525.751C575.928 525.805 575.898 525.859 575.869 525.913C575.741 526.152 575.611 526.389 575.479 526.625C575.449 526.678 575.419 526.731 575.389 526.784C575.248 527.032 575.105 527.279 574.959 527.525C574.941 527.556 574.922 527.587 574.903 527.619C574.761 527.857 574.617 528.094 574.471 528.329C574.403 528.437 574.333 528.545 574.265 528.653C574.152 528.83 574.039 529.006 573.924 529.181C573.858 529.282 573.79 529.381 573.723 529.481C573.602 529.661 573.483 529.841 573.359 530.019C573.314 530.085 573.268 530.15 573.222 530.215C573.078 530.42 572.934 530.624 572.787 530.826C572.723 530.914 572.658 531.001 572.593 531.089C572.466 531.262 572.338 531.434 572.208 531.604C572.125 531.712 572.041 531.82 571.957 531.927C571.84 532.078 571.723 532.229 571.604 532.378C571.53 532.47 571.455 532.561 571.381 532.652C571.248 532.815 571.115 532.977 570.98 533.138C570.885 533.251 570.789 533.363 570.693 533.475C570.58 533.607 570.467 533.738 570.353 533.869C570.246 533.989 570.139 534.109 570.031 534.228C569.922 534.349 569.813 534.471 569.702 534.591C569.606 534.695 569.508 534.798 569.411 534.901C569.271 535.05 569.131 535.199 568.989 535.345C568.926 535.411 568.862 535.475 568.798 535.54C568.637 535.704 568.475 535.867 568.312 536.028C568.206 536.131 568.1 536.233 567.993 536.335C567.875 536.45 567.757 536.564 567.637 536.677C567.517 536.79 567.396 536.9 567.276 537.011C567.154 537.122 567.034 537.234 566.911 537.343C566.8 537.443 566.688 537.542 566.575 537.64C566.442 537.757 566.308 537.873 566.173 537.988C566.056 538.088 565.938 538.187 565.819 538.286C565.692 538.391 565.566 538.498 565.438 538.602C565.319 538.698 565.2 538.793 565.08 538.888C564.94 538.999 564.8 539.109 564.658 539.218C564.545 539.306 564.431 539.393 564.317 539.48C564.167 539.593 564.017 539.706 563.865 539.817C563.768 539.888 563.671 539.958 563.573 540.029C563.409 540.147 563.243 540.264 563.076 540.38C562.97 540.454 562.864 540.528 562.757 540.601C562.6 540.708 562.442 540.814 562.283 540.919C562.164 540.998 562.045 541.075 561.925 541.153C561.773 541.251 561.621 541.348 561.468 541.444C561.359 541.512 561.251 541.58 561.142 541.647C560.979 541.747 560.815 541.845 560.651 541.943C560.522 542.019 560.392 542.094 560.263 542.169C560.115 542.255 559.966 542.34 559.817 542.423C559.681 542.499 559.546 542.575 559.409 542.649C559.272 542.724 559.134 542.797 558.996 542.871C558.851 542.947 558.706 543.023 558.56 543.098C558.407 543.176 558.254 543.253 558.101 543.329C557.964 543.397 557.827 543.464 557.69 543.531C557.547 543.599 557.404 543.667 557.26 543.734C557.115 543.802 556.969 543.868 556.822 543.934C556.658 544.008 556.492 544.082 556.326 544.154C556.201 544.208 556.076 544.262 555.95 544.315C555.777 544.388 555.604 544.458 555.43 544.529C555.294 544.583 555.159 544.638 555.023 544.691C554.874 544.749 554.724 544.806 554.574 544.863C554.417 544.922 554.258 544.98 554.1 545.038C553.942 545.095 553.783 545.15 553.624 545.204C553.487 545.252 553.35 545.299 553.213 545.345C553.037 545.404 552.861 545.46 552.685 545.516C552.543 545.561 552.402 545.605 552.26 545.648C552.111 545.693 551.961 545.737 551.812 545.781C551.646 545.829 551.48 545.876 551.314 545.922C551.148 545.968 550.983 546.011 550.817 546.054C550.677 546.09 550.538 546.127 550.399 546.162C550.214 546.207 550.029 546.25 549.844 546.293C549.706 546.325 549.568 546.358 549.43 546.388C549.262 546.425 549.094 546.46 548.925 546.495C548.77 546.526 548.615 546.558 548.459 546.588C548.3 546.619 548.141 546.647 547.982 546.675C547.808 546.706 547.634 546.737 547.459 546.766C547.317 546.789 547.175 546.811 547.033 546.832C546.854 546.86 546.675 546.887 546.495 546.912C546.342 546.933 546.189 546.951 546.035 546.97C545.858 546.992 545.681 547.015 545.503 547.035C545.352 547.051 545.2 547.066 545.048 547.08C544.872 547.098 544.696 547.116 544.52 547.13C544.346 547.145 544.172 547.156 543.997 547.168C543.842 547.179 543.688 547.19 543.532 547.199C543.336 547.21 543.139 547.218 542.943 547.226C542.81 547.231 542.678 547.239 542.546 547.243C542.33 547.249 542.113 547.252 541.896 547.255C541.772 547.257 541.648 547.26 541.525 547.26C541.322 547.261 541.12 547.258 540.917 547.255C540.779 547.254 540.64 547.254 540.501 547.25C540.292 547.246 540.083 547.236 539.873 547.228C539.743 547.223 539.612 547.22 539.482 547.213C539.255 547.202 539.028 547.186 538.8 547.17C538.686 547.163 538.572 547.157 538.458 547.148C538.25 547.132 538.042 547.112 537.834 547.092C537.689 547.079 537.543 547.066 537.398 547.051C537.252 547.036 537.107 547.018 536.962 547.001C536.755 546.977 536.548 546.955 536.341 546.927C536.199 546.908 536.058 546.886 535.916 546.866C535.719 546.837 535.521 546.81 535.323 546.779C535.152 546.751 534.981 546.72 534.809 546.691C534.627 546.66 534.445 546.63 534.263 546.596C534.012 546.549 533.761 546.498 533.509 546.446C533.421 546.428 533.333 546.411 533.245 546.392C532.954 546.33 532.663 546.264 532.371 546.195C532.309 546.18 532.247 546.167 532.185 546.152C531.896 546.082 531.607 546.008 531.318 545.931C531.253 545.914 531.188 545.898 531.123 545.88C530.816 545.798 530.51 545.711 530.202 545.621C530.155 545.607 530.108 545.594 530.061 545.58C529.707 545.475 529.353 545.364 528.999 545.248C513.172 540.108 502.369 523.202 502.74 505.343C503.367 487.842 510.993 474.397 526.542 466.525L527.289 466.154L527.29 466.166H527.317C527.496 466.079 527.676 465.995 527.857 465.911C529.345 465.217 530.862 464.643 532.398 464.18C532.719 464.083 533.04 463.991 533.362 463.904C533.898 463.76 534.434 463.628 534.973 463.51C535.425 463.411 535.879 463.323 536.333 463.243C538.493 462.861 540.669 462.687 542.833 462.705Z" fill="black"/>
<path d="M412.273 469.055C420.483 463.448 430.237 461.734 439.437 463.397C440.071 463.512 440.703 463.642 441.331 463.788C445.102 464.668 448.753 466.121 452.136 468.109C452.982 468.606 453.81 469.136 454.62 469.7C455.7 470.451 456.746 471.26 457.752 472.126C458.255 472.56 458.749 473.008 459.232 473.47C460.438 474.625 461.579 475.867 462.644 477.196C463.495 478.258 464.297 479.376 465.045 480.546C465.419 481.132 465.779 481.731 466.125 482.343C466.298 482.649 466.467 482.958 466.633 483.271C466.852 483.687 467.064 484.105 467.269 484.525C467.371 484.735 467.471 484.945 467.569 485.156C467.864 485.787 468.143 486.42 468.404 487.055C468.666 487.69 468.911 488.327 469.141 488.963C469.37 489.6 469.584 490.237 469.782 490.872C469.848 491.084 469.913 491.296 469.976 491.507C470.164 492.142 470.337 492.775 470.495 493.406C471.286 496.557 471.708 499.639 471.823 502.496C471.831 502.686 471.837 502.875 471.842 503.064L471.815 504.035C471.78 504.979 471.722 505.914 471.641 506.838C471.544 507.94 471.413 509.027 471.253 510.099C471.183 510.569 471.107 511.037 471.025 511.501C471.014 511.562 471.003 511.622 470.992 511.682C470.951 511.909 470.909 512.136 470.865 512.362C470.836 512.514 470.804 512.665 470.774 512.816C470.745 512.956 470.716 513.097 470.687 513.237C470.643 513.44 470.598 513.642 470.552 513.844C470.53 513.941 470.509 514.038 470.486 514.134C470.454 514.274 470.419 514.413 470.386 514.552C470.346 514.719 470.306 514.885 470.264 515.051C470.234 515.17 470.203 515.288 470.172 515.407C470.13 515.568 470.088 515.729 470.044 515.889C470.005 516.033 469.964 516.177 469.924 516.321C469.885 516.461 469.846 516.6 469.806 516.74C469.753 516.923 469.697 517.105 469.642 517.287C469.614 517.376 469.588 517.467 469.561 517.556C469.513 517.709 469.464 517.861 469.415 518.013C469.367 518.162 469.32 518.311 469.271 518.459C469.223 518.604 469.173 518.748 469.124 518.892C469.086 519.003 469.048 519.113 469.01 519.223C468.944 519.41 468.877 519.596 468.81 519.782C468.778 519.868 468.748 519.955 468.716 520.041C468.66 520.191 468.603 520.34 468.546 520.489C468.498 520.614 468.45 520.738 468.401 520.863C468.335 521.032 468.267 521.201 468.198 521.37C468.156 521.474 468.113 521.579 468.069 521.683C468.015 521.814 467.96 521.945 467.904 522.076C467.843 522.219 467.781 522.363 467.719 522.505C467.669 522.618 467.619 522.731 467.568 522.843C467.499 522.999 467.429 523.154 467.358 523.309C467.305 523.422 467.252 523.535 467.198 523.648C467.137 523.778 467.076 523.908 467.014 524.038C466.949 524.171 466.884 524.304 466.818 524.436C466.766 524.543 466.713 524.649 466.659 524.755C466.585 524.902 466.509 525.047 466.434 525.193C466.368 525.318 466.303 525.444 466.236 525.569C466.166 525.702 466.094 525.834 466.023 525.966C465.965 526.071 465.909 526.176 465.851 526.281C465.773 526.42 465.694 526.558 465.615 526.697C465.55 526.811 465.485 526.925 465.419 527.038C465.345 527.166 465.271 527.292 465.195 527.418C465.132 527.526 465.067 527.632 465.002 527.739C464.925 527.865 464.849 527.992 464.771 528.118C464.695 528.24 464.618 528.361 464.541 528.482C464.454 528.619 464.366 528.755 464.277 528.891C464.225 528.972 464.172 529.053 464.118 529.134C464.018 529.286 463.917 529.436 463.816 529.586C463.757 529.672 463.7 529.758 463.641 529.843C463.551 529.974 463.46 530.103 463.368 530.233C463.291 530.343 463.212 530.452 463.134 530.561C463.043 530.688 462.95 530.813 462.858 530.939C462.802 531.014 462.747 531.09 462.691 531.165C462.576 531.319 462.46 531.471 462.343 531.622C462.29 531.692 462.236 531.761 462.183 531.829C462.072 531.972 461.96 532.113 461.848 532.253C461.786 532.331 461.723 532.408 461.66 532.485C461.546 532.625 461.432 532.764 461.317 532.903C461.258 532.973 461.199 533.043 461.14 533.113C461.019 533.256 460.897 533.398 460.775 533.539C460.724 533.598 460.673 533.657 460.621 533.715C460.491 533.863 460.36 534.009 460.229 534.155C460.177 534.212 460.125 534.268 460.073 534.325C459.936 534.475 459.797 534.625 459.657 534.773C459.613 534.82 459.568 534.867 459.524 534.913C459.386 535.058 459.247 535.202 459.108 535.345C459.043 535.411 458.979 535.475 458.914 535.54C458.795 535.66 458.675 535.78 458.555 535.898C458.477 535.975 458.398 536.051 458.319 536.127C458.195 536.248 458.07 536.367 457.943 536.486C457.875 536.55 457.806 536.613 457.737 536.677C457.611 536.795 457.484 536.912 457.357 537.028C457.265 537.111 457.172 537.192 457.08 537.274C456.976 537.367 456.871 537.46 456.766 537.552C456.685 537.622 456.604 537.692 456.523 537.761C456.387 537.877 456.251 537.993 456.113 538.108C456.032 538.176 455.949 538.242 455.867 538.309C455.744 538.41 455.621 538.51 455.497 538.61C455.411 538.679 455.324 538.747 455.236 538.816C455.092 538.929 454.948 539.042 454.802 539.154C454.774 539.175 454.746 539.197 454.718 539.218C454.534 539.358 454.349 539.496 454.162 539.633C454.119 539.665 454.075 539.697 454.031 539.729C453.871 539.846 453.709 539.962 453.547 540.077C453.446 540.147 453.345 540.217 453.243 540.287C453.103 540.383 452.964 540.48 452.822 540.575C452.772 540.608 452.721 540.642 452.671 540.675C452.267 540.944 451.859 541.207 451.444 541.461C451.386 541.497 451.327 541.532 451.269 541.568C449.924 542.385 448.527 543.127 447.079 543.788C447.025 543.813 446.97 543.837 446.916 543.862C445.456 544.521 443.946 545.101 442.389 545.593C442.215 545.648 442.041 545.699 441.867 545.75L441.719 545.795C441.5 545.859 441.28 545.92 441.06 545.979C440.973 546.002 440.886 546.025 440.799 546.047C440.665 546.082 440.531 546.117 440.397 546.15C440.282 546.178 440.167 546.206 440.052 546.233C439.947 546.258 439.842 546.282 439.737 546.306C439.604 546.336 439.471 546.365 439.338 546.393C439.247 546.412 439.156 546.433 439.065 546.452C438.672 546.532 438.278 546.605 437.884 546.671C437.838 546.679 437.792 546.687 437.746 546.695C437.615 546.716 437.483 546.736 437.352 546.756C437.246 546.772 437.141 546.789 437.035 546.804C436.919 546.821 436.802 546.836 436.686 546.852C436.584 546.865 436.482 546.878 436.38 546.891C436.241 546.908 436.102 546.924 435.963 546.94C435.881 546.949 435.798 546.959 435.716 546.967C435.571 546.982 435.427 546.996 435.282 547.009C435.201 547.017 435.119 547.025 435.037 547.032C434.899 547.043 434.761 547.053 434.623 547.063C434.532 547.07 434.441 547.076 434.35 547.082C434.207 547.092 434.064 547.1 433.921 547.108C433.851 547.112 433.781 547.115 433.711 547.119C433.547 547.126 433.383 547.133 433.219 547.138C433.149 547.14 433.08 547.143 433.01 547.145C432.889 547.148 432.768 547.151 432.648 547.153C432.523 547.155 432.398 547.157 432.273 547.158C432.157 547.158 432.041 547.158 431.926 547.158C431.84 547.157 431.753 547.158 431.667 547.157C431.513 547.155 431.36 547.152 431.206 547.149C431.138 547.147 431.069 547.146 431.001 547.144C430.844 547.139 430.687 547.134 430.53 547.127C430.454 547.124 430.377 547.12 430.301 547.117C430.173 547.111 430.044 547.105 429.916 547.097C429.798 547.09 429.679 547.082 429.561 547.074C429.448 547.066 429.335 547.058 429.223 547.049C429.137 547.043 429.052 547.036 428.967 547.029C428.808 547.015 428.649 547.002 428.49 546.987C428.437 546.982 428.384 546.976 428.33 546.97C428.174 546.954 428.017 546.938 427.86 546.92C427.754 546.908 427.648 546.894 427.541 546.881C427.432 546.868 427.324 546.855 427.215 546.84C427.088 546.824 426.962 546.806 426.835 546.788C426.745 546.775 426.654 546.762 426.564 546.748C426.441 546.73 426.318 546.71 426.195 546.691C426.079 546.672 425.962 546.654 425.845 546.634C425.761 546.62 425.677 546.604 425.593 546.589C425.45 546.564 425.306 546.539 425.163 546.512C425.1 546.5 425.036 546.487 424.973 546.475C424.82 546.445 424.668 546.416 424.516 546.384C424.435 546.367 424.354 546.35 424.274 546.332C424.125 546.301 423.976 546.269 423.828 546.236C423.778 546.224 423.728 546.212 423.678 546.201C423.519 546.164 423.359 546.127 423.2 546.088C423.095 546.063 422.99 546.035 422.885 546.008C422.767 545.978 422.648 545.949 422.53 545.918C422.415 545.888 422.3 545.857 422.186 545.826C422.082 545.797 421.978 545.77 421.875 545.741C421.839 545.73 421.803 545.72 421.767 545.709C421.343 545.589 420.921 545.462 420.502 545.327C420.097 545.196 419.694 545.059 419.293 544.915C418.954 544.794 418.616 544.667 418.28 544.536C418.194 544.502 418.107 544.468 418.021 544.434C417.645 544.284 417.272 544.128 416.901 543.967C416.865 543.951 416.828 543.935 416.791 543.919C416.652 543.858 416.514 543.796 416.376 543.734C416.295 543.697 416.213 543.661 416.132 543.623C416.036 543.579 415.941 543.534 415.845 543.489C415.736 543.438 415.627 543.387 415.519 543.334C415.406 543.28 415.293 543.224 415.181 543.168C415.097 543.127 415.014 543.086 414.931 543.044C414.808 542.983 414.686 542.921 414.564 542.858C414.476 542.813 414.389 542.767 414.302 542.721C414.193 542.664 414.084 542.606 413.975 542.547C413.883 542.498 413.792 542.449 413.7 542.399C413.593 542.34 413.487 542.281 413.38 542.221C413.293 542.172 413.206 542.123 413.119 542.074C413.002 542.007 412.885 541.94 412.769 541.871C412.691 541.826 412.613 541.781 412.535 541.735C412.409 541.66 412.283 541.584 412.157 541.507C412.088 541.465 412.018 541.422 411.948 541.379C411.84 541.312 411.731 541.244 411.623 541.176C411.509 541.104 411.396 541.032 411.282 540.958C411.223 540.92 411.164 540.882 411.106 540.843C410.983 540.763 410.861 540.682 410.739 540.601C410.657 540.546 410.576 540.491 410.494 540.435C410.397 540.369 410.299 540.302 410.202 540.235C410.117 540.176 410.033 540.117 409.948 540.057C409.84 539.98 409.732 539.903 409.624 539.826C409.542 539.766 409.46 539.707 409.378 539.647C409.288 539.581 409.198 539.513 409.109 539.446C409.008 539.37 408.907 539.295 408.807 539.218C408.712 539.146 408.618 539.073 408.525 538.999C408.454 538.944 408.383 538.889 408.313 538.833C408.215 538.757 408.118 538.68 408.022 538.602C407.921 538.521 407.821 538.44 407.721 538.358C407.663 538.31 407.605 538.262 407.547 538.213C407.433 538.118 407.319 538.022 407.205 537.925C407.112 537.845 407.019 537.765 406.926 537.684C406.858 537.625 406.79 537.565 406.722 537.505C406.626 537.421 406.531 537.335 406.436 537.249C406.351 537.173 406.265 537.096 406.181 537.019C406.075 536.922 405.97 536.823 405.865 536.725C405.812 536.675 405.758 536.625 405.705 536.575C405.234 536.126 404.774 535.665 404.325 535.192C404.297 535.162 404.268 535.133 404.24 535.103C404.141 534.997 404.043 534.89 403.945 534.784C403.89 534.723 403.834 534.664 403.778 534.603C403.469 534.262 403.166 533.914 402.869 533.561L402.424 533.02C402.301 532.868 402.18 532.715 402.06 532.562C400.858 531.029 399.78 529.431 398.825 527.781C398.634 527.45 398.448 527.118 398.267 526.784C390.747 512.912 391.643 495.6 399.739 482.255C400.325 481.291 400.948 480.347 401.609 479.427C402.269 478.507 402.965 477.609 403.699 476.739C404.066 476.303 404.443 475.875 404.828 475.454C405.085 475.172 405.346 474.894 405.61 474.62C405.755 474.47 405.9 474.321 406.047 474.173C407.92 472.285 409.989 470.554 412.246 469.015V469.028H412.273V469.055Z" fill="black"/>
<path d="M258.395 393.074L258.391 393.077L258.402 393.063C258.401 393.065 258.398 393.069 258.395 393.074Z" fill="black"/>
<path d="M258.865 392.486C258.86 392.493 258.857 392.497 258.857 392.497C258.857 392.497 258.859 392.492 258.866 392.483L258.865 392.486Z" fill="black"/>
<path d="M258.883 392.462C258.883 392.462 258.878 392.469 258.876 392.472C258.873 392.476 258.869 392.48 258.866 392.483C258.871 392.477 258.875 392.47 258.882 392.461L258.883 392.462Z" fill="black"/>
<path d="M631.752 103.505L631.751 103.506C681.659 103.915 717.859 121.218 741.614 138.681C753.436 147.372 762.142 156.07 767.955 162.69C770.865 166.004 773.065 168.811 774.579 170.858C775.337 171.882 775.924 172.718 776.345 173.333C776.555 173.641 776.725 173.894 776.853 174.088C776.916 174.185 776.97 174.267 777.014 174.334C777.035 174.368 777.055 174.398 777.071 174.424C777.08 174.437 777.088 174.449 777.095 174.46C777.098 174.466 777.103 174.473 777.105 174.476C777.109 174.483 777.114 174.491 763.611 183.075L773.18 193.294C774.461 194.664 774.539 194.751 774.542 194.758C774.542 194.758 774.537 194.763 774.534 194.766C774.528 194.772 774.521 194.778 774.513 194.786C774.497 194.8 774.478 194.819 774.455 194.84C774.409 194.883 774.347 194.94 774.271 195.01C774.119 195.15 773.908 195.343 773.64 195.585C773.104 196.07 772.338 196.753 771.358 197.606C769.397 199.311 766.571 201.7 762.988 204.544C755.838 210.222 745.599 217.779 733.164 225.35C708.663 240.268 673.931 256.293 636.744 256.293C601.231 256.293 575.581 248.467 554.103 236.359C542.942 230.067 532.898 222.55 523.493 214.888L511.756 320.332C514.602 319.092 517.638 317.828 520.846 316.57C542.108 308.231 571.76 299.801 603.655 300.798L603.654 300.799C653.482 302.355 691.43 320.214 716.862 337.675C729.564 346.396 739.19 355.045 745.701 361.589C748.961 364.865 751.454 367.628 753.174 369.626C754.034 370.626 754.703 371.437 755.179 372.027C755.417 372.321 755.606 372.561 755.748 372.743C755.758 372.756 755.769 372.769 755.778 372.782C755.792 372.798 755.805 372.814 755.819 372.831C755.974 373.02 756.182 373.275 756.439 373.597C756.952 374.241 757.663 375.15 758.537 376.312C760.284 378.636 762.69 381.981 765.48 386.254C771.049 394.787 778.206 407.105 784.712 422.46C797.704 453.121 808.364 496.557 797.804 546.162C789.799 583.762 770.057 646.065 750.522 702.039C740.708 730.158 730.853 756.942 722.406 778.571C714.121 799.785 706.794 817.084 702.081 825.463C684.314 857.055 651.104 891.991 599.089 898.227C562.808 902.576 533.136 887.778 513.369 873.059C505.863 867.469 499.59 861.753 494.68 856.797C489.437 862.156 482.674 868.469 474.646 874.662C454.792 889.976 424.92 906.297 390.193 902.133C337.432 895.806 304.559 856.065 287.349 825.463C282.636 817.083 275.309 799.784 267.025 778.571C258.578 756.942 248.726 730.158 238.912 702.039C219.378 646.065 199.636 583.762 191.626 546.163L191.625 546.162C181.065 496.557 191.726 453.121 204.718 422.46C211.224 407.105 218.381 394.787 223.95 386.254C226.74 381.981 229.146 378.636 230.893 376.312C231.767 375.15 232.478 374.241 232.991 373.597C233.248 373.275 233.456 373.02 233.61 372.831C233.622 372.818 233.633 372.804 233.644 372.79C233.655 372.776 233.667 372.76 233.68 372.745C233.822 372.563 234.012 372.323 234.25 372.028C234.726 371.438 235.394 370.627 236.254 369.627C237.974 367.628 240.466 364.866 243.726 361.589C250.237 355.045 259.862 346.396 272.564 337.675C297.995 320.213 335.943 302.355 385.775 300.799C417.694 299.801 446.83 308.244 467.621 316.626C471.88 318.343 475.821 320.072 479.402 321.738L494.994 181.673L495.073 181.065C495.286 179.651 495.687 178.271 496.267 176.962C496.275 176.944 496.271 176.953 496.275 176.944C496.276 176.94 496.28 176.932 496.283 176.925C496.289 176.912 496.296 176.897 496.303 176.881C496.317 176.851 496.332 176.816 496.35 176.778C496.385 176.7 496.428 176.607 496.479 176.498C496.58 176.282 496.712 176.003 496.876 175.668C497.205 174.999 497.663 174.1 498.259 173.006C499.451 170.819 501.203 167.838 503.591 164.334C508.36 157.337 515.722 148.168 526.295 139.064C547.681 120.648 581.558 103.09 631.752 103.505ZM455.655 346.305C437.24 338.881 412.706 331.971 386.776 332.783C344.368 334.107 312.25 349.242 290.677 364.055C279.876 371.471 271.763 378.78 266.412 384.159C263.741 386.844 261.77 389.035 260.511 390.498C259.882 391.23 259.431 391.778 259.16 392.114C259.025 392.281 258.935 392.396 258.89 392.454C258.887 392.457 258.884 392.459 258.882 392.461C258.722 392.672 258.558 392.878 258.388 393.08L258.347 393.131C258.282 393.21 258.165 393.354 258 393.56C257.67 393.973 257.149 394.638 256.469 395.542C255.107 397.353 253.114 400.118 250.747 403.745C246.003 411.012 239.813 421.655 234.182 434.945C222.899 461.574 214.125 498.162 222.924 539.496L223.286 541.176C231.072 576.831 249.912 636.44 269.125 691.495C278.838 719.326 288.556 745.736 296.832 766.93C305.271 788.539 311.818 803.691 315.24 809.777C330.57 837.035 356.366 865.847 394.003 870.361C416.507 873.059 437.949 862.554 455.101 849.324C463.473 842.866 470.281 836.166 474.993 831.073C477.338 828.539 479.134 826.434 480.317 825C480.907 824.284 481.342 823.738 481.613 823.392C481.749 823.219 481.843 823.096 481.896 823.028C481.916 823.002 481.929 822.983 481.937 822.973L481.936 822.975L481.931 822.982C484.987 818.912 489.798 816.539 494.888 816.591C499.977 816.643 504.737 819.113 507.71 823.243L507.721 823.256C507.76 823.31 507.838 823.414 507.953 823.566C508.183 823.87 508.562 824.361 509.085 825.012C510.132 826.316 511.746 828.249 513.887 830.581C518.189 835.269 524.501 841.45 532.482 847.393C548.592 859.39 570.151 869.467 595.28 866.455C633.685 861.85 659.416 836.045 674.189 809.777C677.611 803.691 684.159 788.539 692.599 766.93C700.876 745.736 710.595 719.325 720.309 691.494C739.828 635.564 758.961 574.938 766.506 539.498L766.905 537.565C775.031 497.022 766.355 461.158 755.248 434.945C749.617 421.655 743.427 411.012 738.683 403.745C736.316 400.118 734.323 397.353 732.961 395.542C732.281 394.638 731.76 393.973 731.43 393.56C731.265 393.354 731.148 393.21 731.083 393.131C731.065 393.109 731.051 393.092 731.041 393.08C730.872 392.879 730.707 392.673 730.548 392.463L730.541 392.455C730.496 392.398 730.405 392.282 730.27 392.115C729.999 391.779 729.548 391.23 728.919 390.499C727.659 389.036 725.689 386.845 723.018 384.16C717.666 378.781 709.552 371.472 698.75 364.055C677.175 349.242 645.058 334.107 602.655 332.783C576.691 331.97 551.571 338.893 532.528 346.361C523.094 350.061 515.364 353.81 510.035 356.61C507.376 358.007 505.327 359.161 503.979 359.944C503.305 360.335 502.806 360.632 502.495 360.821C502.34 360.915 502.231 360.982 502.171 361.019C502.157 361.028 502.144 361.034 502.135 361.039L502.136 361.04C502.134 361.042 502.131 361.043 502.129 361.044L502.124 361.048C502.121 361.05 502.116 361.052 502.116 361.052C496.815 364.377 490.06 364.308 484.828 360.871C484.822 360.866 484.814 360.861 484.805 360.855C484.75 360.82 484.649 360.755 484.504 360.663C484.213 360.48 483.742 360.186 483.103 359.8C481.823 359.027 479.869 357.883 477.322 356.496C472.22 353.716 464.787 349.987 455.655 346.305ZM631.486 135.504C589.622 135.158 563.135 149.569 547.175 163.313C540.259 169.269 535.196 175.213 531.696 180.004C544.83 191.126 556.027 200.709 569.818 208.483C586.283 217.765 606.483 224.293 636.744 224.293C665.332 224.293 694.034 211.71 716.523 198.018C726.573 191.899 735.042 185.766 741.276 180.908C736.803 176.141 730.628 170.321 722.661 164.464C703.436 150.331 673.64 135.85 631.488 135.504H631.486Z" fill="black"/>
<path d="M777.114 174.491C781.241 180.983 780.164 189.493 774.549 194.752L763.611 183.075L777.114 174.491Z" fill="black"/>
</svg>
