<svg width="1020" height="1020" viewBox="0 0 1020 1020" fill="none" xmlns="http://www.w3.org/2000/svg">
<path d="M155.625 602.782C213.043 682.296 244.466 553.003 248.425 602.782C257.6 718.161 304.551 790.403 368.695 705.412C410.316 650.264 368.745 878.703 500.19 860.961C595.235 848.133 597.037 685.531 638.531 723.052C767.99 840.115 748.688 573.654 795.252 636.458C846.376 705.412 929.662 583.508 941.325 459.609C947.415 394.913 918.73 339.544 769.595 370.26C683.054 388.084 730.704 139.87 562.73 121.7C433.283 107.698 406.751 260.123 352.645 326.681C298.615 393.145 187.822 285.268 146.13 370.26C104.438 455.251 129.294 566.317 155.625 602.782Z" fill="white"/>
<path d="M586.654 262.361C601.993 256.584 619.222 262.592 628.325 274.172C639.236 288.041 640.814 303.283 634.617 319.206C626.383 340.338 603.255 352.575 580.798 342.832C565.225 336.098 555.877 317.898 557.962 299.796C560.309 281.801 569.587 268.749 586.628 262.345L586.626 262.359L586.654 262.361Z" fill="black"/>
<path d="M473.91 262.388C493.486 251.554 518.878 260.692 527.728 282.022C530.656 289.125 531.537 296.484 531.122 302.621C528.718 323.678 515.378 339.063 497.158 342.994C482.253 346.178 466.221 339.13 457.796 326.405C443.713 305.152 451.45 274.742 473.888 262.345L473.886 262.359L473.913 262.361L473.91 262.388Z" fill="black"/>
<path d="M474.468 124.865C499.106 109.58 528.624 101.917 564.451 105.793C611.024 110.83 643.289 132.12 666.225 160.693C688.67 188.655 701.879 223.214 711.937 254.594C716.793 269.747 721.589 286.437 725.668 299.452C730.015 313.319 734.153 325.083 738.748 334.449C743.409 343.948 747.83 349.467 751.926 352.335C755.321 354.713 759.481 356.007 766.367 354.588C841.887 339.034 892.244 343.949 923.036 366.183C955.02 389.278 960.491 426.736 957.255 461.108C951.186 525.578 926.553 590.01 895.778 630.096C880.598 649.869 862.206 665.95 841.762 670.89C831.141 673.456 820.133 672.945 809.528 668.487C799.574 664.302 790.913 657.042 783.494 647.432C780.723 653.462 777.915 661.752 774.549 672.081C771.189 682.39 767.384 694.354 762.888 705.905C758.398 717.439 752.939 729.326 745.943 739.564C738.965 749.775 729.796 759.321 717.532 764.719C691.291 776.27 661.334 765.243 627.8 734.919C627.61 734.748 627.433 734.593 627.269 734.454C626.829 734.945 626.291 735.597 625.658 736.456C622.86 740.255 619.75 745.946 616.009 753.74C612.199 761.675 608.582 769.939 603.943 779.887C595.108 798.831 583.912 820.919 568.19 839.168C552.224 857.698 530.998 872.948 502.33 876.817C464.05 881.984 436.581 868.946 417.815 846.704C400.028 825.623 390.923 797.329 385.18 772.807C382.264 760.357 380.085 748.244 378.196 737.962C377.135 732.184 376.191 727.156 375.279 722.858C360.259 740.876 344.54 752.866 327.997 756.983C307.626 762.053 289.837 754.364 276.383 740.294C263.488 726.808 253.815 706.94 246.78 684.168C241.292 666.402 237.171 646.08 234.487 624.092C234.197 624.401 233.906 624.71 233.611 625.017C225.261 633.708 211.891 645.064 194.026 645.325C175.27 645.598 158.271 633.774 142.654 612.148C127.213 590.764 113.893 550.766 109.448 506.309C104.96 461.411 109.219 409.177 131.766 363.213C144.457 337.341 163.557 324.895 185.734 321.163C206.204 317.717 228.523 321.907 247.939 325.841C268.624 330.033 286.636 334.076 302.965 333.585C318.228 333.125 330.373 328.714 340.23 316.588C352.553 301.429 363.653 280.896 375.881 257.253C387.821 234.168 400.714 208.378 416.094 185.147C431.526 161.837 450.192 139.925 474.468 124.865ZM561.01 137.607C532.114 134.481 509.771 140.621 491.337 152.057C472.541 163.718 456.92 181.447 442.776 202.812C428.578 224.257 416.602 248.179 404.305 271.955C392.296 295.173 379.79 318.653 365.06 336.773C347.902 357.879 325.936 364.907 303.928 365.57C282.985 366.2 260.561 361.049 241.583 357.204C221.336 353.101 204.762 350.411 191.045 352.719C179.035 354.741 168.65 360.683 160.495 377.306C141.351 416.333 137.191 462.127 141.29 503.126C145.433 544.566 157.707 578.334 168.597 593.415C181.689 611.544 190.15 613.377 193.559 613.328C197.858 613.265 203.357 610.318 210.534 602.847C213.881 599.363 216.939 595.605 220.043 591.784C222.72 588.488 226.309 583.993 229.749 580.96C231.364 579.537 234.655 576.844 239.241 575.637C241.822 574.959 245.089 574.678 248.633 575.61C252.218 576.553 255.046 578.464 257.109 580.578C260.762 584.322 262.191 588.86 262.863 591.492C263.645 594.55 264.093 597.974 264.374 601.513C266.599 629.489 271.088 654.433 277.356 674.722C283.709 695.289 291.504 709.804 299.511 718.177C306.959 725.966 313.509 727.612 320.268 725.93C328.57 723.864 340.73 715.906 355.924 695.774C358.953 691.761 362.48 687.811 366.63 685.007C370.943 682.093 377.715 679.322 385.514 681.669C392.653 683.817 396.694 689.144 398.762 692.611C400.965 696.305 402.492 700.512 403.643 704.354C405.952 712.061 407.812 722.067 409.67 732.18C411.595 742.66 413.632 753.962 416.337 765.511C421.835 788.987 429.584 811.03 442.273 826.068C453.981 839.944 470.608 848.809 498.05 845.105C516.904 842.56 531.546 832.674 543.946 818.281C556.59 803.606 566.258 784.983 574.942 766.363C579.061 757.529 583.366 747.797 587.161 739.891C591.024 731.844 595.202 723.847 599.893 717.478C604.314 711.475 611.177 704.136 621.294 702.018C632.5 699.673 642.098 704.706 649.263 711.184C680.457 739.391 696.635 738.955 704.64 735.431C709.499 733.292 714.482 728.884 719.522 721.509C724.543 714.162 728.968 704.83 733.067 694.298C737.159 683.784 740.648 672.833 744.124 662.166C747.473 651.891 750.965 641.364 754.857 633.123C756.813 628.98 759.214 624.653 762.255 620.97C765.239 617.358 769.884 613.102 776.572 611.427C783.816 609.614 790.491 611.536 795.708 614.791C800.564 617.819 804.622 622.231 808.105 626.928C813.228 633.838 817.991 637.332 821.929 638.988C825.71 640.577 829.688 640.887 834.246 639.786C844.161 637.39 856.906 628.181 870.396 610.61C896.96 576.008 919.802 517.538 925.396 458.109C928.25 427.786 922.423 405.211 904.303 392.126C884.991 378.182 846.438 370.769 772.822 385.931C758.074 388.969 744.791 386.405 733.571 378.548C723.053 371.183 715.686 360.092 710.02 348.544C704.288 336.863 699.559 323.141 695.133 309.023C690.44 294.052 686.557 280.256 681.463 264.361C671.619 233.645 659.837 203.856 641.27 180.725C623.193 158.205 598.424 141.654 561.01 137.607Z" fill="black"/>
</svg>
