<?xml version="1.0" encoding="UTF-8"?>
<svg width="80" height="80" viewBox="0 0 80 80" fill="none" xmlns="http://www.w3.org/2000/svg">
  <circle cx="40" cy="40" r="40" fill="#F7F5F2"/>
  <g transform="translate(20, 20) scale(2)">
    <path d="M10 0C4.477 0 0 4.477 0 10C0 15.523 4.477 20 10 20C15.523 20 20 15.523 20 10C20 4.477 15.523 0 10 0Z" fill="white"/>
    <path d="M10 2C5.582 2 2 5.582 2 10C2 14.418 5.582 18 10 18C14.418 18 18 14.418 18 10C18 5.582 14.418 2 10 2ZM10 4C12.209 4 14 5.791 14 8C14 10.209 12.209 12 10 12C7.791 12 6 10.209 6 8C6 5.791 7.791 4 10 4Z" fill="#1D1B16"/>
    <path d="M5 7C5.5 7.5 6.5 8 7.5 8C8.5 8 9 7.5 9.5 7" stroke="#1D1B16" stroke-width="0.75" stroke-linecap="round"/>
    <path d="M10.5 7C11 7.5 12 8 13 8C14 8 14.5 7.5 15 7" stroke="#1D1B16" stroke-width="0.75" stroke-linecap="round"/>
    <path d="M7 13C7.5 14 9 14.5 10 14.5C11 14.5 12.5 14 13 13" stroke="#1D1B16" stroke-width="0.75" stroke-linecap="round"/>
  </g>
</svg> 