<svg width="16" height="16" viewBox="0 0 16 16" fill="none" xmlns="http://www.w3.org/2000/svg">
<g clip-path="url(#clip0_1445_48037)">
<path d="M3.82521 9.89942C3.82521 10.732 3.14508 11.4121 2.31251 11.4121C1.47994 11.4121 0.799805 10.732 0.799805 9.89942C0.799805 9.06685 1.47994 8.38672 2.31251 8.38672H3.82521V9.89942Z" fill="#E01E5A"/>
<path d="M4.58789 9.89942C4.58789 9.06685 5.26802 8.38672 6.10059 8.38672C6.93317 8.38672 7.6133 9.06685 7.6133 9.89942V13.687C7.6133 14.5196 6.93317 15.1997 6.10059 15.1997C5.26802 15.1997 4.58789 14.5196 4.58789 13.687V9.89942Z" fill="#E01E5A"/>
<path d="M6.10059 3.82521C5.26802 3.82521 4.58789 3.14508 4.58789 2.31251C4.58789 1.47994 5.26802 0.799805 6.10059 0.799805C6.93317 0.799805 7.6133 1.47994 7.6133 2.31251V3.82521H6.10059Z" fill="#36C5F0"/>
<path d="M6.10013 4.5874C6.9327 4.5874 7.61283 5.26753 7.61283 6.10011C7.61283 6.93268 6.9327 7.61281 6.10013 7.61281H2.31251C1.47994 7.61281 0.799805 6.93268 0.799805 6.10011C0.799805 5.26753 1.47994 4.5874 2.31251 4.5874H6.10013Z" fill="#36C5F0"/>
<path d="M12.1748 6.10011C12.1748 5.26753 12.8549 4.5874 13.6875 4.5874C14.5201 4.5874 15.2002 5.26753 15.2002 6.10011C15.2002 6.93268 14.5201 7.61281 13.6875 7.61281H12.1748V6.10011Z" fill="#2EB67D"/>
<path d="M11.4121 6.10013C11.4121 6.9327 10.732 7.61283 9.89942 7.61283C9.06685 7.61283 8.38672 6.9327 8.38672 6.10013V2.31251C8.38672 1.47994 9.06685 0.799805 9.89942 0.799805C10.732 0.799805 11.4121 1.47994 11.4121 2.31251V6.10013Z" fill="#2EB67D"/>
<path d="M9.89942 12.1743C10.732 12.1743 11.4121 12.8544 11.4121 13.687C11.4121 14.5196 10.732 15.1997 9.89942 15.1997C9.06685 15.1997 8.38672 14.5196 8.38672 13.687V12.1743H9.89942Z" fill="#ECB22E"/>
<path d="M9.89942 11.4121C9.06685 11.4121 8.38672 10.732 8.38672 9.89942C8.38672 9.06685 9.06685 8.38672 9.89942 8.38672H13.687C14.5196 8.38672 15.1997 9.06685 15.1997 9.89942C15.1997 10.732 14.5196 11.4121 13.687 11.4121H9.89942Z" fill="#ECB22E"/>
</g>
<defs>
<clipPath id="clip0_1445_48037">
<rect width="14.4" height="14.4" fill="white" transform="translate(0.799805 0.799805)"/>
</clipPath>
</defs>
</svg>
