<svg width="20" height="20" viewBox="0 0 20 20" fill="none" xmlns="http://www.w3.org/2000/svg">
<path d="M12.7576 9.97527C13.4 10.0794 14.0051 9.64306 14.1092 9.00071C14.2133 8.35836 13.777 7.75323 13.1347 7.64911C12.4923 7.54499 11.8872 7.98132 11.7831 8.62367C11.679 9.26602 12.1153 9.87115 12.7576 9.97527Z" fill="black"/>
<path d="M6.54659 8.96847C7.18896 9.07259 7.79411 8.63625 7.89823 7.99388C8.00235 7.3515 7.56601 6.74635 6.92364 6.64223C6.28127 6.53811 5.67612 6.97445 5.572 7.61682C5.46788 8.2592 5.90422 8.86435 6.54659 8.96847Z" fill="black"/>
<path d="M10.5727 5.55337C11.6843 3.69729 14.09 3.09376 15.9461 4.20534C16.5315 4.55593 16.9936 5.03663 17.3157 5.58866C17.4897 5.88678 17.3891 6.2695 17.091 6.44349C16.7929 6.61748 16.4101 6.51685 16.2362 6.21873C16.0175 5.84403 15.704 5.51738 15.3039 5.27773C14.0401 4.52085 12.402 4.9318 11.6451 6.19561L6.24646 15.2101L10.4384 15.8895C10.7791 15.9448 11.0105 16.2658 10.9553 16.6065C10.9001 16.9472 10.5791 17.1787 10.2384 17.1234L5.13677 16.2965C4.93223 16.2634 4.75742 16.131 4.67005 15.9431C4.58268 15.7552 4.59411 15.5362 4.70058 15.3585L10.5727 5.55337Z" fill="black"/>
<path d="M4.35877 3.51611C5.60315 2.40327 7.47374 2.17308 8.98261 3.07671C9.34799 3.29554 9.66574 3.56532 9.93144 3.87195C10.1575 4.13281 10.1293 4.52753 9.8684 4.75358C9.60754 4.97963 9.21282 4.9514 8.98677 4.69054C8.80672 4.48276 8.59073 4.29905 8.34037 4.14911C7.31433 3.53463 6.04004 3.6895 5.19203 4.44787C4.93473 4.67797 4.53961 4.65592 4.30952 4.39862C4.07942 4.14132 4.10147 3.74621 4.35877 3.51611Z" fill="black"/>
</svg>
