<svg width="20" height="20" viewBox="0 0 20 20" fill="none" xmlns="http://www.w3.org/2000/svg">
<g clip-path="url(#clip0_41_2947)">
<path d="M7.66649 15.7969C8.38836 16.0875 9.17274 16.25 10.0009 16.25C13.1602 16.25 15.7665 13.9 16.1852 10.8563C14.9477 11.7781 13.5509 12.7 12.0571 13.5656C10.5509 14.4375 9.06649 15.1875 7.66961 15.7969H7.66649ZM19.8977 4.26562C19.3696 3.34687 16.9196 3.7 13.7165 4.98125C12.679 4.20937 11.3946 3.75 10.0009 3.75C6.54774 3.75 3.75086 6.54687 3.75086 10C3.75086 10.2469 3.76961 10.4906 3.79774 10.7313C1.09774 12.8688 -0.424138 14.8187 0.103987 15.7344C0.891487 17.1062 5.96336 15.65 11.429 12.4844C16.8946 9.31875 20.6852 5.6375 19.8977 4.26875V4.26562ZM3.19774 13.9406C2.96336 13.5344 3.31336 12.8375 4.08524 12C4.35711 12.7969 4.78211 13.5187 5.32899 14.1344C4.21649 14.3875 3.43211 14.3469 3.19774 13.9406ZM15.9165 8C15.6477 7.20313 15.2259 6.47813 14.6821 5.8625C15.7915 5.60938 16.5727 5.65312 16.8071 6.05937C17.0415 6.46562 16.6915 7.1625 15.9165 8.00313V8Z" fill="#494846"/>
</g>
<defs>
<clipPath id="clip0_41_2947">
<rect width="20" height="20" fill="white"/>
</clipPath>
</defs>
</svg>
