<svg width="246" height="138" viewBox="0 0 246 138" fill="none" xmlns="http://www.w3.org/2000/svg">
<g filter="url(#filter0_d_100_71695)">
<mask id="path-1-outside-1_100_71695" maskUnits="userSpaceOnUse" x="32" y="20" width="182" height="74" fill="black">
<rect fill="white" x="32" y="20" width="182" height="74"/>
<path d="M197 21C205.837 21 213 28.1634 213 37V69C213 77.8366 205.837 85 197 85H62.6982L51.9805 92.5781C50.7175 93.4711 48.9624 92.6537 48.833 91.1123L48.3184 84.9844C39.798 84.6272 33 77.6082 33 69V37C33 28.1634 40.1634 21 49 21H197Z"/>
</mask>
<path d="M197 21C205.837 21 213 28.1634 213 37V69C213 77.8366 205.837 85 197 85H62.6982L51.9805 92.5781C50.7175 93.4711 48.9624 92.6537 48.833 91.1123L48.3184 84.9844C39.798 84.6272 33 77.6082 33 69V37C33 28.1634 40.1634 21 49 21H197Z" fill="white" shape-rendering="crispEdges"/>
<path d="M197 85V86V85ZM62.6982 85V84H62.3804L62.1209 84.1835L62.6982 85ZM51.9805 92.5781L52.5578 93.3947L52.5578 93.3946L51.9805 92.5781ZM48.833 91.1123L49.8295 91.0287L49.8295 91.0286L48.833 91.1123ZM48.3184 84.9844L49.3149 84.9007L49.2411 84.0222L48.3602 83.9853L48.3184 84.9844ZM33 37H32H33ZM49 21V20V21ZM197 21V22C205.284 22 212 28.7157 212 37H213H214C214 27.6112 206.389 20 197 20V21ZM213 37H212V69H213H214V37H213ZM213 69H212C212 77.2843 205.284 84 197 84V85V86C206.389 86 214 78.3888 214 69H213ZM197 85V84H62.6982V85V86H197V85ZM62.6982 85L62.1209 84.1835L51.4031 91.7616L51.9805 92.5781L52.5578 93.3946L63.2756 85.8165L62.6982 85ZM51.9805 92.5781L51.4032 91.7616C50.7717 92.208 49.8942 91.7994 49.8295 91.0287L48.833 91.1123L47.8365 91.1959C48.0306 93.5079 50.6632 94.7342 52.5578 93.3947L51.9805 92.5781ZM48.833 91.1123L49.8295 91.0286L49.3149 84.9007L48.3184 84.9844L47.3219 85.0681L47.8365 91.196L48.833 91.1123ZM48.3184 84.9844L48.3602 83.9853C40.373 83.6505 34 77.0698 34 69H33H32C32 78.1465 39.223 85.604 48.2765 85.9835L48.3184 84.9844ZM33 69H34V37H33H32V69H33ZM33 37H34C34 28.7157 40.7157 22 49 22V21V20C39.6112 20 32 27.6112 32 37H33ZM49 21V22H197V21V20H49V21Z" fill="#2A1C00" fill-opacity="0.0705" mask="url(#path-1-outside-1_100_71695)"/>
</g>
<defs>
<filter id="filter0_d_100_71695" x="0" y="0" width="246" height="137.949" filterUnits="userSpaceOnUse" color-interpolation-filters="sRGB">
<feFlood flood-opacity="0" result="BackgroundImageFix"/>
<feColorMatrix in="SourceAlpha" type="matrix" values="0 0 0 0 0 0 0 0 0 0 0 0 0 0 0 0 0 0 127 0" result="hardAlpha"/>
<feOffset dy="12"/>
<feGaussianBlur stdDeviation="16"/>
<feComposite in2="hardAlpha" operator="out"/>
<feColorMatrix type="matrix" values="0 0 0 0 0.0980392 0 0 0 0 0.0980392 0 0 0 0 0.0980392 0 0 0 0.03 0"/>
<feBlend mode="normal" in2="BackgroundImageFix" result="effect1_dropShadow_100_71695"/>
<feBlend mode="normal" in="SourceGraphic" in2="effect1_dropShadow_100_71695" result="shape"/>
</filter>
</defs>
</svg>
