<svg width="36" height="36" viewBox="0 0 36 36" fill="none" xmlns="http://www.w3.org/2000/svg">
<path d="M21.9335 2.92456C22.9236 2.83978 23.6167 2.81683 24.2303 2.95581C24.8598 3.09848 25.3645 3.40121 26.0009 3.86304H26.0018L31.1805 7.50269L31.1874 7.50854C31.5854 7.80006 31.9341 8.04125 32.1581 8.30054C32.4276 8.6128 32.5243 8.94676 32.5243 9.37573V29.3357C32.5243 30.006 32.4042 30.6478 31.9764 31.1335C31.5447 31.6234 30.8845 31.8598 30.0272 31.9207H30.0223L11.1844 33.0583H11.1786C10.5644 33.0876 10.0439 33.0642 9.58093 32.8953C9.10145 32.7203 8.73466 32.4094 8.38562 31.9656L8.38269 31.9617L4.56921 27.0144L4.56531 27.0095C3.84852 26.0542 3.50183 25.272 3.50183 24.3308V6.58862C3.50183 6.01275 3.62908 5.42447 3.995 4.95581C4.37066 4.47478 4.94681 4.18464 5.70593 4.1189H5.71179L21.9335 2.92358V2.92456Z" fill="white" stroke="white" stroke-width="0.963343"/>
<path d="M5.74712 4.59891L21.9686 3.40435C23.9605 3.2335 24.4731 3.34794 25.7251 4.25744L30.9031 7.89683C31.7575 8.52267 32.0423 8.69306 32.0423 9.37529V29.3361C32.0423 30.587 31.5866 31.3269 29.9933 31.44L11.1555 32.5776C9.95948 32.6346 9.39026 32.4642 8.76391 31.6675L4.95069 26.7201C4.26741 25.8095 3.98328 25.1281 3.98328 24.331V6.58853C3.98328 5.56552 4.43911 4.71219 5.74712 4.59891Z" fill="black"/>
<path d="M9.78851 12.219V29.1649C9.78851 30.0757 10.2436 30.4163 11.268 30.36L28.968 29.3358C29.9929 29.2795 30.107 28.6531 30.107 27.9132V11.081C30.107 10.3424 29.8229 9.94403 29.1955 10.0009L10.6988 11.081C10.0162 11.1384 9.78851 11.4798 9.78851 12.219Z" fill="white"/>
<path d="M27.2622 13.1281C27.3757 13.6404 27.2622 14.1523 26.749 14.2099L25.8961 14.3798V26.8904C25.1557 27.2884 24.4728 27.5159 23.9039 27.5159C22.9929 27.5159 22.7648 27.2313 22.0824 26.3788L16.504 17.6213V26.0944L18.2692 26.4928C18.2692 26.4928 18.2692 27.5159 16.845 27.5159L12.9189 27.7436C12.8048 27.5159 12.9189 26.9477 13.3171 26.8338L14.3417 26.5499V15.3469L12.9191 15.2329C12.8051 14.7206 13.0892 13.9819 13.8866 13.9246L18.0984 13.6407L23.9039 22.5121V14.6641L22.4237 14.4942C22.3101 13.8679 22.7648 13.4132 23.334 13.3568L27.2622 13.1281Z" fill="black"/>
<path d="M8.82168 8.46572C9.73148 9.20482 10.0728 9.14842 11.7811 9.03445L27.8867 8.06737C28.2283 8.06737 27.9442 7.72659 27.8304 7.66996L25.1556 5.73629C24.6431 5.33841 23.9602 4.88272 22.6515 4.9967L7.05644 6.13417C6.48771 6.19057 6.37409 6.47492 6.60062 6.70288L8.82168 8.46572Z" fill="white"/>
</svg>
