<svg width="1020" height="1020" viewBox="0 0 1020 1020" fill="none" xmlns="http://www.w3.org/2000/svg">
<path d="M599.175 326.719C600.498 326.725 601.824 326.749 603.154 326.791L605.308 326.869C605.858 326.892 606.406 326.918 606.953 326.945C609.935 327.093 612.87 327.303 615.756 327.572C617.674 327.751 619.57 327.957 621.445 328.187C626.245 328.774 630.907 329.521 635.43 330.408C636.508 330.62 637.578 330.841 638.64 331.068C707.553 345.801 743.196 392.666 743.283 392.78C743.283 392.78 801.513 461.89 782.153 552.83C766.603 625.87 704.402 798.69 688.132 827.62C671.862 856.55 642.392 886.922 597.182 892.342C596.923 892.373 596.663 892.4 596.405 892.429L595.749 892.502C592.943 892.794 590.18 892.95 587.463 892.986C586.511 892.999 585.563 892.997 584.622 892.98C583.758 892.965 582.9 892.937 582.046 892.897C582.005 892.896 581.963 892.895 581.921 892.893C580.165 892.809 578.429 892.674 576.714 892.494C576.68 892.491 576.646 892.487 576.612 892.483C575.779 892.395 574.951 892.296 574.128 892.186C574.086 892.18 574.043 892.175 574 892.169C573.219 892.063 572.444 891.947 571.672 891.823C571.585 891.809 571.497 891.796 571.409 891.781C569.812 891.519 568.235 891.216 566.678 890.879C562.417 889.955 558.307 888.761 554.36 887.354C553.654 887.103 552.954 886.844 552.258 886.579C551.06 886.123 549.877 885.649 548.71 885.156C548.045 884.876 547.386 884.59 546.732 884.299C545.909 883.933 545.095 883.558 544.289 883.176C543.678 882.886 543.072 882.592 542.47 882.294C541.326 881.726 540.199 881.144 539.089 880.549C538.493 880.229 537.903 879.905 537.317 879.578C535.912 878.794 534.538 877.99 533.194 877.171C532.636 876.831 532.083 876.487 531.536 876.142C530.508 875.493 529.5 874.838 528.51 874.175C527.983 873.822 527.462 873.467 526.946 873.11C525.995 872.454 525.062 871.792 524.149 871.127C523.107 870.369 522.091 869.605 521.099 868.842C511.708 861.611 504.577 854.265 500.113 849.189C499.431 848.414 498.81 847.692 498.253 847.031C497.024 845.571 496.108 844.409 495.516 843.642C495.004 842.976 494.735 842.606 494.724 842.591C494.72 842.597 494.654 842.68 494.534 842.837C494.028 843.494 492.517 845.422 490.114 848.18C489.83 848.505 489.534 848.842 489.226 849.189C487.959 850.62 486.485 852.233 484.818 853.979C482.735 856.161 480.35 858.549 477.69 861.048C475.365 863.232 472.829 865.501 470.099 867.787C468.826 868.853 467.51 869.923 466.154 870.99C465.426 871.563 464.688 872.138 463.937 872.708C462.926 873.476 461.894 874.24 460.842 874.999C459.462 875.995 458.048 876.982 456.601 877.952C455.418 878.746 454.212 879.529 452.986 880.299C452.556 880.568 452.125 880.837 451.69 881.103C449.885 882.207 448.036 883.279 446.145 884.312C445.593 884.614 445.039 884.914 444.48 885.208C444.381 885.26 444.282 885.311 444.183 885.362C442.923 886.022 441.646 886.662 440.351 887.281C437.181 888.797 433.909 890.184 430.546 891.401C430.053 891.58 429.558 891.755 429.06 891.927C427.912 892.322 426.754 892.696 425.586 893.05C424.795 893.29 423.999 893.52 423.198 893.739C422.972 893.801 422.746 893.862 422.52 893.922C421.606 894.165 420.687 894.394 419.762 894.609C418.288 894.952 416.801 895.26 415.299 895.526C414.375 895.691 413.446 895.839 412.512 895.973C411.565 896.108 410.613 896.227 409.657 896.33C409.053 896.395 408.448 896.455 407.841 896.507C407.233 896.558 406.623 896.601 406.011 896.639C405.6 896.664 405.189 896.686 404.776 896.705C404.172 896.733 403.566 896.754 402.959 896.768C402.429 896.78 401.899 896.788 401.367 896.789C401.348 896.789 401.329 896.789 401.31 896.789C400.499 896.79 399.685 896.779 398.869 896.754C398.315 896.737 397.761 896.714 397.205 896.685C396.431 896.644 395.656 896.593 394.878 896.528C394.374 896.487 393.87 896.441 393.365 896.389C392.943 896.345 392.521 896.299 392.098 896.248C375.186 894.22 360.495 888.152 347.878 879.836C347.223 879.404 346.573 878.965 345.928 878.521C341.345 875.363 337.044 871.911 333.018 868.255C332.92 868.166 332.823 868.075 332.725 867.985C319.24 855.664 308.856 841.066 301.294 827.621C294.333 815.242 278.965 776.52 262.439 730.544C260.403 724.879 258.349 719.104 256.292 713.255C255.199 710.149 254.106 707.022 253.013 703.879C251.762 700.282 250.513 696.665 249.267 693.035C244.165 678.166 239.133 663.087 234.382 648.35C233.45 645.457 232.53 642.578 231.621 639.716C223.96 615.602 217.179 592.718 212.221 573.555C210.388 566.471 208.803 559.896 207.516 553.955C207.434 553.578 207.353 553.203 207.274 552.831C207.134 552.174 206.999 551.517 206.867 550.862C206.511 549.095 206.187 547.337 205.888 545.587C205.663 544.265 205.453 542.948 205.259 541.636C205.032 540.097 204.825 538.565 204.64 537.04C204.485 535.764 204.346 534.492 204.219 533.227C204.148 532.515 204.081 531.806 204.019 531.098C203.865 529.337 203.734 527.587 203.633 525.848C203.574 524.826 203.527 523.807 203.485 522.793C203.171 515.136 203.354 507.698 203.942 500.513C204.096 498.635 204.277 496.774 204.484 494.932C205.174 488.789 206.149 482.846 207.345 477.123C207.465 476.551 207.587 475.981 207.711 475.413C208.206 473.142 208.736 470.906 209.296 468.708C209.577 467.609 209.865 466.519 210.16 465.438C212.076 458.416 214.289 451.794 216.657 445.622C217.203 444.198 217.758 442.798 218.319 441.422C218.693 440.505 219.069 439.598 219.449 438.703C219.638 438.255 219.828 437.81 220.019 437.368C220.973 435.158 221.941 433.018 222.913 430.951C223.496 429.711 224.081 428.497 224.666 427.31C225.056 426.518 225.446 425.738 225.836 424.97C226.03 424.586 226.225 424.206 226.419 423.828C227.198 422.317 227.973 420.855 228.741 419.442C237.955 402.499 246.144 392.78 246.144 392.78C246.166 392.752 246.912 391.772 248.378 390.068C248.568 389.847 248.77 389.614 248.984 389.369C249.099 389.238 249.217 389.103 249.339 388.965C249.533 388.746 249.735 388.519 249.946 388.284C250.407 387.771 250.909 387.219 251.454 386.633C263.004 374.189 293.309 346.115 341.483 333.297C342.569 333.008 343.663 332.726 344.767 332.453C347.299 331.827 349.878 331.245 352.504 330.708C354.872 330.224 357.277 329.777 359.721 329.373C360.512 329.242 361.306 329.117 362.105 328.995C363.258 328.819 364.42 328.651 365.59 328.493C365.777 328.468 365.964 328.445 366.151 328.42C368.612 328.096 371.111 327.811 373.646 327.574C373.874 327.553 374.102 327.534 374.33 327.514C376.166 327.348 378.022 327.205 379.897 327.088C379.929 327.086 379.96 327.084 379.992 327.082C381.358 326.998 382.734 326.927 384.121 326.869L386.274 326.791C387.62 326.749 388.962 326.725 390.299 326.719C390.307 326.719 390.314 326.719 390.322 326.719C409.353 326.639 427.36 330.16 442.848 334.843C443.046 334.903 443.245 334.96 443.442 335.021C444.61 335.378 445.763 335.743 446.902 336.112C447.237 336.221 447.571 336.329 447.904 336.438C449.741 337.044 451.536 337.663 453.289 338.291C453.492 338.364 453.695 338.435 453.897 338.508C456.259 339.361 458.54 340.232 460.734 341.105C461.036 341.226 461.337 341.345 461.636 341.466C462.376 341.764 463.106 342.064 463.825 342.362C464.637 342.7 465.436 343.037 466.221 343.373C466.726 343.589 467.226 343.806 467.719 344.021C470.242 345.123 472.612 346.21 474.814 347.263C475.334 347.511 475.845 347.758 476.346 348.002C477.674 348.649 478.935 349.279 480.126 349.888C480.207 349.929 480.288 349.97 480.369 350.012C481.18 350.428 481.959 350.833 482.703 351.227C482.804 351.28 482.904 351.334 483.004 351.387C489.743 354.962 493.569 357.471 493.612 357.499L493.613 357.498L493.614 357.499C493.644 357.48 494.922 356.677 497.278 355.342C497.409 355.267 497.544 355.192 497.682 355.114C499.527 354.076 501.964 352.749 504.923 351.239C505.036 351.182 505.149 351.125 505.262 351.067C507.977 349.688 511.116 348.161 514.629 346.564C514.696 346.534 514.762 346.505 514.829 346.475C516.334 345.792 517.906 345.097 519.543 344.396C519.692 344.331 519.843 344.268 519.994 344.204C522.144 343.288 524.401 342.361 526.757 341.438C526.837 341.406 526.917 341.376 526.997 341.345C528.2 340.875 529.43 340.405 530.683 339.938C531.443 339.656 532.212 339.375 532.989 339.095C534.205 338.656 535.443 338.22 536.701 337.789C536.924 337.713 537.148 337.639 537.373 337.562C539.94 336.693 542.589 335.841 545.312 335.026C545.521 334.964 545.731 334.905 545.94 334.843C561.76 330.16 580.03 326.64 599.095 326.719C599.122 326.719 599.149 326.719 599.175 326.719ZM542.103 472.707C541.632 472.712 541.159 472.727 540.687 472.751C540.429 472.764 540.171 472.78 539.913 472.799C538.544 472.898 537.176 473.077 535.816 473.339C535.48 473.403 535.145 473.474 534.81 473.549C534.23 473.678 533.651 473.824 533.075 473.984C532.935 474.023 532.796 474.063 532.657 474.104C531.642 474.4 530.635 474.746 529.638 475.143C529.513 475.192 529.388 475.243 529.263 475.294C528.772 475.496 528.284 475.712 527.798 475.939C527.637 476.015 527.475 476.09 527.315 476.168H527.29V476.155L527.289 476.154C521.018 479.208 515.998 483.143 512.169 487.864C511.404 488.809 510.686 489.785 510.015 490.791C509.479 491.596 508.972 492.421 508.496 493.266C507.926 494.274 507.401 495.311 506.918 496.374C506.693 496.868 506.476 497.367 506.269 497.872C506.176 498.1 506.085 498.329 505.996 498.559C505.46 499.938 504.99 501.358 504.586 502.819C504.359 503.642 504.154 504.478 503.968 505.326C503.879 505.734 503.792 506.144 503.712 506.557C503.597 507.154 503.494 507.757 503.398 508.366C503.311 508.92 503.232 509.479 503.162 510.043C503.028 511.11 502.924 512.195 502.848 513.296C502.802 513.972 502.764 514.656 502.74 515.345C502.693 517.577 502.821 519.795 503.112 521.977C503.148 522.249 503.188 522.522 503.229 522.793C503.726 526.051 504.585 529.223 505.766 532.235C505.865 532.486 505.965 532.737 506.068 532.985C507.302 535.971 508.856 538.793 510.687 541.38C510.84 541.595 510.995 541.809 511.151 542.021C515.218 547.539 520.574 551.924 526.806 554.451C527.286 554.646 527.771 554.829 528.26 555.001C528.505 555.087 528.751 555.17 528.999 555.25C530.32 555.681 531.639 556.038 532.949 556.327C533.035 556.346 533.121 556.367 533.208 556.386C533.857 556.525 534.506 556.646 535.152 556.751C535.196 556.758 535.24 556.766 535.284 556.773C535.545 556.815 535.807 556.852 536.067 556.889C536.157 556.901 536.248 556.916 536.338 556.928C536.536 556.954 536.733 556.975 536.93 556.998C537.086 557.016 537.242 557.036 537.397 557.053C537.587 557.073 537.777 557.088 537.966 557.105C538.117 557.119 538.268 557.134 538.419 557.146C538.631 557.162 538.843 557.175 539.054 557.188C539.182 557.195 539.31 557.205 539.437 557.212C539.658 557.223 539.88 557.23 540.1 557.237C540.219 557.241 540.338 557.247 540.457 557.25C540.676 557.255 540.895 557.257 541.113 557.259C541.235 557.26 541.357 557.262 541.478 557.262C541.677 557.261 541.875 557.257 542.073 557.253C542.215 557.25 542.358 557.249 542.501 557.245C542.709 557.239 542.917 557.229 543.125 557.22C543.245 557.214 543.366 557.209 543.487 557.202C543.712 557.19 543.936 557.174 544.16 557.157C544.264 557.15 544.37 557.143 544.474 557.135C544.713 557.115 544.951 557.091 545.188 557.067C545.28 557.058 545.372 557.05 545.463 557.04C545.663 557.018 545.862 556.994 546.061 556.969C546.208 556.95 546.356 556.932 546.503 556.912C546.675 556.888 546.848 556.862 547.02 556.836C547.165 556.814 547.31 556.792 547.454 556.769C547.66 556.735 547.866 556.697 548.072 556.66C548.185 556.64 548.299 556.62 548.412 556.599C548.598 556.563 548.784 556.525 548.969 556.486C549.117 556.456 549.265 556.426 549.412 556.394C549.586 556.355 549.76 556.314 549.934 556.273C550.071 556.241 550.209 556.209 550.345 556.176C550.533 556.13 550.72 556.081 550.906 556.032C551.029 556 551.152 555.967 551.275 555.934C551.488 555.875 551.701 555.814 551.914 555.752C552.005 555.725 552.098 555.698 552.189 555.671C552.39 555.61 552.59 555.547 552.79 555.483C552.913 555.444 553.036 555.405 553.159 555.364C553.338 555.305 553.516 555.243 553.694 555.182C553.82 555.138 553.946 555.094 554.071 555.049C554.244 554.987 554.416 554.923 554.587 554.858C554.734 554.803 554.88 554.748 555.026 554.691C555.179 554.631 555.332 554.57 555.485 554.508C555.623 554.452 555.761 554.395 555.898 554.337C556.059 554.269 556.22 554.201 556.38 554.131C556.514 554.073 556.647 554.015 556.78 553.955C556.949 553.879 557.117 553.801 557.285 553.723C557.404 553.667 557.523 553.611 557.641 553.555C557.819 553.469 557.996 553.382 558.172 553.294C558.286 553.237 558.4 553.181 558.513 553.123C558.683 553.036 558.852 552.949 559.02 552.859C559.141 552.795 559.262 552.73 559.382 552.664C559.549 552.574 559.714 552.482 559.879 552.389C559.984 552.33 560.089 552.27 560.194 552.21C560.368 552.11 560.542 552.009 560.714 551.906C560.823 551.842 560.93 551.776 561.038 551.711C561.204 551.609 561.371 551.507 561.536 551.403C561.645 551.334 561.755 551.264 561.864 551.194C562.027 551.089 562.189 550.982 562.351 550.874C562.458 550.803 562.564 550.731 562.67 550.659C562.825 550.554 562.979 550.449 563.132 550.342C563.24 550.266 563.348 550.19 563.455 550.113C563.615 549.999 563.775 549.884 563.934 549.767C564.037 549.69 564.14 549.613 564.243 549.536C564.396 549.421 564.549 549.304 564.701 549.187C564.812 549.1 564.923 549.013 565.034 548.926C565.176 548.813 565.318 548.699 565.46 548.584C565.562 548.501 565.663 548.416 565.764 548.332C565.916 548.206 566.068 548.08 566.218 547.951C566.305 547.877 566.39 547.801 566.476 547.727C566.633 547.59 566.791 547.453 566.946 547.313C567.048 547.221 567.15 547.127 567.252 547.034C567.378 546.918 567.505 546.801 567.63 546.683C567.746 546.574 567.862 546.465 567.976 546.354C568.102 546.233 568.228 546.112 568.352 545.989C568.469 545.873 568.586 545.756 568.702 545.639C568.814 545.525 568.926 545.411 569.037 545.296C569.124 545.206 569.209 545.115 569.295 545.024C569.442 544.87 569.587 544.716 569.731 544.56C569.816 544.467 569.9 544.374 569.984 544.28C570.103 544.149 570.222 544.018 570.339 543.885C570.469 543.737 570.597 543.588 570.725 543.438C570.809 543.34 570.893 543.242 570.976 543.144C571.113 542.981 571.247 542.817 571.381 542.652C571.46 542.556 571.538 542.46 571.616 542.363C571.723 542.229 571.829 542.092 571.935 541.956C572.028 541.837 572.121 541.718 572.212 541.598C572.321 541.455 572.429 541.311 572.537 541.166C572.63 541.041 572.723 540.916 572.815 540.789C572.909 540.659 573.002 540.527 573.095 540.396C573.196 540.253 573.297 540.111 573.396 539.967C573.466 539.866 573.533 539.764 573.602 539.662C573.716 539.494 573.83 539.327 573.941 539.157C574.05 538.99 574.158 538.822 574.265 538.653C574.334 538.545 574.403 538.438 574.471 538.329C574.584 538.148 574.695 537.965 574.805 537.781C574.868 537.678 574.93 537.575 574.992 537.471C575.076 537.328 575.159 537.184 575.242 537.04C575.325 536.896 575.408 536.752 575.49 536.606C575.573 536.458 575.653 536.307 575.735 536.157C575.814 536.013 575.894 535.87 575.971 535.725C576.065 535.548 576.155 535.37 576.247 535.191C576.307 535.073 576.369 534.956 576.428 534.837C576.558 534.577 576.686 534.316 576.811 534.053C576.827 534.019 576.844 533.984 576.86 533.95C576.986 533.685 577.109 533.417 577.229 533.148C577.252 533.098 577.275 533.048 577.297 532.998C577.41 532.745 577.518 532.491 577.626 532.235C577.644 532.192 577.663 532.148 577.681 532.104C577.763 531.907 577.842 531.708 577.921 531.51C577.975 531.375 578.032 531.241 578.085 531.105C578.126 530.998 578.165 530.89 578.206 530.782C578.644 529.627 579.039 528.446 579.382 527.242C579.526 526.739 579.662 526.237 579.791 525.736C579.919 525.236 580.04 524.736 580.154 524.238C580.324 523.491 580.478 522.747 580.615 522.007C580.752 521.266 580.872 520.529 580.975 519.795C581.376 516.94 581.517 514.134 581.393 511.384C581.071 504.236 578.949 497.459 574.869 491.143C574.734 490.934 574.597 490.726 574.459 490.519C573.626 489.275 572.716 488.049 571.728 486.843C571.234 486.24 570.721 485.641 570.188 485.047C569.833 484.651 569.469 484.257 569.096 483.865C568.474 483.211 567.823 482.581 567.145 481.977C565.79 480.768 564.328 479.661 562.782 478.665C561.815 478.043 560.814 477.463 559.786 476.931C558.14 476.079 556.421 475.345 554.65 474.739C550.885 473.451 546.881 472.741 542.833 472.706C542.59 472.704 542.346 472.704 542.103 472.707ZM466.632 493.271C459.01 478.893 443.623 471.447 428.842 472.991C428.2 473.058 427.558 473.142 426.919 473.243C426.599 473.294 426.279 473.349 425.961 473.408C425.004 473.586 424.053 473.803 423.109 474.059C422.794 474.144 422.48 474.233 422.167 474.327C421.54 474.515 420.918 474.722 420.299 474.945C417.517 475.951 414.82 477.316 412.272 479.056V479.028H412.246V479.016C400.886 486.761 394.316 499.361 393.263 512.37C392.737 518.874 393.589 525.481 395.913 531.635C395.979 531.81 396.047 531.985 396.116 532.16C396.391 532.86 396.685 533.555 396.999 534.242C397.077 534.414 397.157 534.585 397.238 534.756C397.4 535.098 397.565 535.438 397.737 535.776C398.08 536.452 398.443 537.121 398.825 537.781C399.016 538.111 399.211 538.44 399.412 538.766C399.612 539.091 399.818 539.415 400.029 539.736C400.345 540.218 400.672 540.695 401.01 541.166C401.236 541.48 401.466 541.792 401.702 542.102C401.937 542.41 402.178 542.717 402.423 543.021C403.092 543.85 403.798 544.647 404.534 545.411C404.59 545.47 404.646 545.529 404.703 545.587C405.108 546.003 405.524 546.408 405.948 546.804C406.034 546.885 406.121 546.966 406.209 547.046C406.283 547.114 406.359 547.182 406.434 547.25C406.517 547.324 406.599 547.399 406.682 547.473C406.774 547.554 406.866 547.634 406.959 547.714C407.05 547.793 407.142 547.873 407.234 547.951C407.327 548.03 407.421 548.109 407.514 548.188C407.581 548.244 407.649 548.3 407.716 548.355C407.848 548.464 407.981 548.57 408.114 548.677C408.153 548.708 408.193 548.74 408.232 548.771C408.348 548.864 408.466 548.956 408.584 549.047C408.657 549.104 408.731 549.161 408.804 549.217C408.92 549.305 409.036 549.393 409.153 549.48C409.212 549.525 409.272 549.569 409.332 549.612C409.447 549.697 409.564 549.782 409.68 549.866C409.747 549.914 409.814 549.962 409.88 550.01C409.989 550.087 410.098 550.163 410.208 550.239C410.291 550.297 410.375 550.356 410.46 550.413C410.581 550.496 410.703 550.579 410.826 550.66C410.886 550.7 410.948 550.74 411.008 550.78C411.137 550.865 411.266 550.95 411.396 551.033C411.455 551.071 411.514 551.107 411.573 551.145C411.707 551.23 411.843 551.315 411.978 551.398C412.024 551.427 412.071 551.455 412.117 551.483C412.268 551.576 412.42 551.667 412.572 551.757C412.62 551.785 412.669 551.813 412.717 551.842C412.852 551.921 412.988 552 413.124 552.077C413.223 552.134 413.323 552.19 413.423 552.246C413.501 552.289 413.579 552.333 413.657 552.376C413.781 552.444 413.905 552.511 414.03 552.578C414.127 552.63 414.226 552.682 414.324 552.733C414.386 552.766 414.448 552.799 414.51 552.831C414.643 552.9 414.777 552.969 414.911 553.036C414.99 553.076 415.07 553.115 415.149 553.154C415.491 553.323 415.836 553.488 416.182 553.647C416.216 553.663 416.251 553.679 416.286 553.694C416.453 553.771 416.622 553.846 416.791 553.92C416.861 553.951 416.933 553.981 417.003 554.012C417.126 554.065 417.249 554.118 417.372 554.17C417.477 554.214 417.583 554.257 417.688 554.3C417.798 554.345 417.907 554.39 418.017 554.434C418.104 554.468 418.192 554.502 418.28 554.536C420.244 555.302 422.268 555.909 424.325 556.345C424.384 556.357 424.444 556.371 424.503 556.383C424.663 556.416 424.824 556.447 424.984 556.478C425.043 556.489 425.103 556.502 425.162 556.513C425.315 556.542 425.468 556.569 425.622 556.596C425.692 556.608 425.763 556.621 425.834 556.633C425.98 556.658 426.127 556.681 426.274 556.704C426.353 556.717 426.432 556.729 426.51 556.741C426.64 556.761 426.77 556.78 426.899 556.798C427 556.812 427.101 556.827 427.202 556.84C427.334 556.857 427.467 556.874 427.599 556.89C427.68 556.9 427.762 556.91 427.843 556.919C428.005 556.938 428.168 556.954 428.33 556.971C428.385 556.976 428.442 556.982 428.498 556.987C428.638 557.001 428.78 557.014 428.92 557.026C429.022 557.035 429.124 557.044 429.226 557.052C429.371 557.063 429.517 557.073 429.663 557.082C429.718 557.086 429.773 557.089 429.828 557.093C430.01 557.104 430.192 557.113 430.375 557.121C430.414 557.123 430.454 557.125 430.494 557.127C430.662 557.134 430.832 557.14 431.001 557.145C431.069 557.146 431.137 557.148 431.206 557.149C431.37 557.153 431.536 557.156 431.701 557.157C431.749 557.158 431.798 557.158 431.846 557.158C432.017 557.159 432.188 557.16 432.359 557.158C432.426 557.158 432.493 557.156 432.56 557.155C432.706 557.153 432.853 557.15 432.999 557.146C433.1 557.144 433.201 557.14 433.302 557.137C433.418 557.133 433.534 557.128 433.65 557.123C433.757 557.118 433.865 557.112 433.972 557.106C434.098 557.1 434.224 557.092 434.35 557.084C434.442 557.078 434.535 557.071 434.627 557.064C434.763 557.055 434.9 557.045 435.036 557.033C435.118 557.026 435.2 557.018 435.282 557.011C435.426 556.997 435.571 556.984 435.715 556.969C435.798 556.96 435.88 556.951 435.962 556.941C436.101 556.926 436.241 556.91 436.379 556.893C436.461 556.883 436.542 556.872 436.624 556.861C436.78 556.841 436.938 556.82 437.094 556.797C437.122 556.793 437.151 556.788 437.179 556.784C437.366 556.757 437.553 556.728 437.74 556.697C437.83 556.682 437.921 556.666 438.011 556.65C438.135 556.629 438.258 556.608 438.381 556.585C438.471 556.568 438.561 556.551 438.651 556.534C439.011 556.465 439.371 556.39 439.729 556.309C439.837 556.284 439.945 556.259 440.053 556.233C440.168 556.206 440.283 556.18 440.397 556.151C440.462 556.135 440.528 556.118 440.593 556.102C441.194 555.949 441.794 555.78 442.388 555.594C444.461 554.938 446.451 554.128 448.35 553.18C448.427 553.141 448.506 553.104 448.583 553.064C448.773 552.968 448.962 552.87 449.15 552.771C449.202 552.743 449.254 552.716 449.306 552.688C449.752 552.451 450.192 552.205 450.628 551.951C450.661 551.932 450.694 551.912 450.727 551.893C450.929 551.774 451.131 551.653 451.331 551.531C451.366 551.51 451.402 551.489 451.437 551.468C451.605 551.364 451.772 551.258 451.938 551.152C452.009 551.108 452.08 551.064 452.15 551.019C452.318 550.91 452.485 550.799 452.652 550.688C452.706 550.653 452.76 550.617 452.814 550.581C452.995 550.46 453.174 550.336 453.353 550.212C453.399 550.18 453.444 550.149 453.49 550.117C453.635 550.015 453.779 549.911 453.923 549.807C454.015 549.74 454.108 549.674 454.199 549.607C454.33 549.511 454.461 549.413 454.591 549.314C454.674 549.252 454.756 549.19 454.838 549.127C454.965 549.03 455.09 548.932 455.214 548.834C455.307 548.761 455.399 548.689 455.491 548.615C455.656 548.483 455.82 548.35 455.983 548.216C456.01 548.193 456.038 548.171 456.065 548.148C456.235 548.008 456.403 547.864 456.57 547.721C456.618 547.679 456.667 547.638 456.715 547.596C456.868 547.463 457.02 547.33 457.17 547.195C457.22 547.151 457.27 547.107 457.319 547.062C457.498 546.901 457.677 546.737 457.853 546.572C457.871 546.556 457.888 546.539 457.906 546.522C458.071 546.367 458.236 546.21 458.399 546.052C458.44 546.012 458.48 545.972 458.521 545.933C458.658 545.799 458.793 545.663 458.927 545.527C458.988 545.467 459.048 545.406 459.108 545.345C459.246 545.204 459.384 545.061 459.52 544.918C459.567 544.869 459.613 544.821 459.66 544.771C459.797 544.626 459.934 544.479 460.069 544.331C460.124 544.271 460.179 544.211 460.233 544.151C460.359 544.012 460.484 543.871 460.609 543.729C460.664 543.667 460.72 543.603 460.775 543.54C460.921 543.372 461.067 543.202 461.211 543.031C461.235 543.002 461.259 542.972 461.284 542.942C461.408 542.794 461.531 542.644 461.654 542.493C461.728 542.402 461.803 542.31 461.877 542.218C461.966 542.106 462.054 541.994 462.142 541.881C462.216 541.787 462.289 541.693 462.362 541.599C462.466 541.463 462.569 541.326 462.671 541.189C462.746 541.09 462.821 540.99 462.895 540.89C462.971 540.786 463.046 540.682 463.122 540.578C463.214 540.45 463.307 540.321 463.398 540.191C463.48 540.074 463.563 539.957 463.644 539.839C463.72 539.729 463.795 539.619 463.87 539.509C463.94 539.405 464.009 539.301 464.078 539.197C464.164 539.068 464.248 538.937 464.333 538.807C464.399 538.704 464.465 538.601 464.531 538.498C464.611 538.372 464.691 538.246 464.77 538.119C464.84 538.007 464.909 537.894 464.978 537.781C465.053 537.658 465.127 537.533 465.201 537.409C465.28 537.276 465.359 537.143 465.437 537.009C465.495 536.909 465.552 536.809 465.609 536.709C465.685 536.576 465.76 536.442 465.835 536.308C465.907 536.177 465.98 536.046 466.051 535.914C466.115 535.797 466.177 535.68 466.24 535.562C466.305 535.439 466.371 535.316 466.435 535.191C466.496 535.075 466.556 534.957 466.616 534.84C466.702 534.671 466.787 534.501 466.871 534.331C466.916 534.239 466.961 534.146 467.006 534.053C467.087 533.886 467.166 533.719 467.245 533.552C467.283 533.47 467.321 533.387 467.359 533.305C467.424 533.164 467.488 533.023 467.551 532.881C467.612 532.746 467.673 532.611 467.732 532.476C467.79 532.343 467.847 532.21 467.904 532.077C467.962 531.941 468.02 531.805 468.077 531.668C468.127 531.546 468.175 531.423 468.225 531.3C468.277 531.172 468.33 531.045 468.38 530.917C468.439 530.768 468.496 530.617 468.553 530.467C468.6 530.346 468.647 530.225 468.692 530.104C468.747 529.956 468.801 529.807 468.855 529.658C468.907 529.514 468.96 529.37 469.01 529.226C469.057 529.093 469.101 528.96 469.146 528.827C469.189 528.701 469.232 528.576 469.274 528.449C469.335 528.264 469.395 528.079 469.455 527.893C469.485 527.797 469.516 527.702 469.545 527.606C469.609 527.403 469.67 527.198 469.731 526.993C469.755 526.911 469.779 526.829 469.803 526.747C469.843 526.611 469.881 526.473 469.919 526.336C469.961 526.187 470.004 526.038 470.044 525.889C470.088 525.729 470.13 525.569 470.171 525.408C470.202 525.29 470.233 525.171 470.263 525.053C470.313 524.855 470.361 524.655 470.409 524.456C470.43 524.366 470.453 524.275 470.474 524.185C470.521 523.983 470.566 523.78 470.611 523.577C470.632 523.481 470.655 523.384 470.675 523.287C470.714 523.108 470.75 522.928 470.787 522.748C470.814 522.616 470.841 522.483 470.867 522.351C470.905 522.155 470.941 521.959 470.977 521.763C470.993 521.676 471.01 521.589 471.025 521.502C471.168 520.698 471.292 519.884 471.398 519.062C471.414 518.934 471.432 518.807 471.448 518.68C471.515 518.129 471.573 517.574 471.624 517.016C471.628 516.97 471.632 516.925 471.636 516.88C471.657 516.65 471.674 516.418 471.692 516.187C471.729 515.698 471.76 515.206 471.784 514.712C471.795 514.487 471.806 514.261 471.814 514.035L471.841 513.064C471.682 507.037 470.145 499.935 466.632 493.271Z" fill="white"/>
<path d="M631.423 128.505H631.425C671.637 128.834 699.833 142.61 717.925 155.91C722.181 159.038 725.888 162.155 729.064 165.075C724.24 168.564 718.617 172.378 712.365 176.185C690.38 189.57 663.185 201.294 636.747 201.294C607.798 201.294 588.96 195.09 573.748 186.515C562.608 180.235 553.368 172.801 542.805 163.907C545.431 160.889 548.611 157.636 552.398 154.375C567.002 141.8 591.641 128.175 631.423 128.505Z" fill="white"/>
<path d="M542.832 472.706C546.881 472.741 550.884 473.451 554.65 474.739C556.421 475.345 558.14 476.078 559.786 476.93C560.815 477.463 561.815 478.042 562.782 478.665C564.328 479.66 565.79 480.767 567.145 481.976C567.823 482.581 568.474 483.211 569.096 483.865C569.469 484.256 569.833 484.651 570.188 485.047C570.721 485.64 571.234 486.239 571.728 486.842C572.716 488.049 573.626 489.275 574.458 490.518C574.597 490.726 574.734 490.934 574.869 491.142C578.949 497.459 581.071 504.235 581.393 511.383C581.517 514.134 581.376 516.939 580.975 519.795C580.872 520.529 580.752 521.266 580.615 522.007C580.478 522.747 580.324 523.491 580.154 524.238C580.04 524.736 579.919 525.235 579.79 525.736C579.662 526.237 579.526 526.739 579.382 527.242C579.039 528.446 578.644 529.627 578.205 530.782C578.165 530.89 578.126 530.998 578.084 531.105C578.032 531.241 577.975 531.375 577.921 531.509C577.842 531.708 577.763 531.907 577.681 532.104C577.663 532.148 577.644 532.191 577.625 532.235C577.518 532.49 577.409 532.745 577.297 532.998C577.275 533.048 577.251 533.098 577.229 533.148C577.108 533.417 576.985 533.684 576.86 533.95C576.844 533.984 576.827 534.018 576.811 534.052C576.686 534.315 576.558 534.577 576.428 534.837C576.369 534.955 576.307 535.073 576.246 535.191C576.155 535.369 576.065 535.548 575.971 535.724C575.894 535.87 575.813 536.013 575.735 536.157C575.653 536.307 575.573 536.457 575.49 536.606C575.408 536.751 575.325 536.896 575.242 537.04C575.159 537.184 575.076 537.328 574.992 537.47C574.93 537.574 574.867 537.678 574.805 537.781C574.695 537.964 574.584 538.147 574.471 538.329C574.403 538.438 574.334 538.545 574.265 538.653C574.158 538.822 574.05 538.99 573.941 539.157C573.83 539.327 573.715 539.494 573.602 539.662C573.533 539.763 573.465 539.866 573.396 539.966C573.297 540.11 573.196 540.253 573.095 540.395C573.002 540.527 572.909 540.658 572.815 540.789C572.723 540.915 572.63 541.04 572.537 541.166C572.429 541.31 572.321 541.454 572.212 541.597C572.121 541.718 572.028 541.837 571.935 541.956C571.829 542.092 571.723 542.228 571.616 542.363C571.538 542.46 571.46 542.556 571.381 542.652C571.247 542.817 571.112 542.981 570.976 543.143C570.893 543.242 570.809 543.34 570.725 543.438C570.597 543.588 570.469 543.737 570.339 543.884C570.222 544.018 570.103 544.148 569.984 544.28C569.9 544.373 569.816 544.467 569.731 544.559C569.587 544.716 569.441 544.87 569.295 545.024C569.209 545.115 569.123 545.206 569.037 545.296C568.925 545.411 568.814 545.525 568.702 545.638C568.585 545.756 568.469 545.873 568.352 545.989C568.228 546.112 568.102 546.233 567.976 546.354C567.861 546.464 567.746 546.574 567.63 546.682C567.505 546.8 567.378 546.917 567.251 547.034C567.15 547.127 567.048 547.221 566.946 547.313C566.79 547.453 566.633 547.589 566.476 547.726C566.39 547.801 566.305 547.877 566.218 547.951C566.068 548.079 565.916 548.206 565.764 548.332C565.663 548.416 565.562 548.5 565.459 548.584C565.318 548.699 565.176 548.812 565.034 548.925C564.923 549.013 564.812 549.1 564.701 549.186C564.549 549.304 564.396 549.42 564.243 549.536C564.14 549.613 564.037 549.69 563.934 549.766C563.775 549.883 563.615 549.998 563.454 550.113C563.347 550.19 563.24 550.266 563.132 550.341C562.979 550.449 562.825 550.554 562.67 550.659C562.564 550.731 562.458 550.803 562.351 550.874C562.189 550.981 562.027 551.089 561.864 551.194C561.755 551.264 561.645 551.334 561.536 551.403C561.37 551.507 561.204 551.609 561.038 551.711C560.93 551.776 560.822 551.842 560.714 551.906C560.542 552.009 560.368 552.109 560.194 552.21C560.089 552.27 559.984 552.329 559.879 552.388C559.714 552.481 559.549 552.573 559.382 552.664C559.262 552.729 559.141 552.795 559.02 552.859C558.852 552.948 558.683 553.036 558.513 553.123C558.4 553.181 558.286 553.237 558.172 553.294C557.996 553.382 557.819 553.469 557.641 553.554C557.523 553.611 557.404 553.667 557.285 553.722C557.117 553.801 556.949 553.879 556.78 553.955C556.647 554.014 556.514 554.072 556.38 554.131C556.22 554.2 556.059 554.269 555.898 554.337C555.76 554.394 555.623 554.451 555.485 554.508C555.332 554.569 555.179 554.631 555.026 554.691C554.88 554.748 554.734 554.803 554.587 554.858C554.416 554.923 554.243 554.986 554.071 555.049C553.945 555.094 553.82 555.138 553.694 555.181C553.516 555.243 553.338 555.305 553.159 555.364C553.036 555.405 552.913 555.444 552.789 555.483C552.59 555.547 552.39 555.61 552.189 555.671C552.097 555.698 552.005 555.725 551.913 555.752C551.701 555.814 551.488 555.875 551.275 555.933C551.152 555.967 551.029 556 550.906 556.032C550.719 556.081 550.533 556.129 550.345 556.175C550.208 556.209 550.071 556.241 549.934 556.273C549.76 556.314 549.586 556.355 549.412 556.393C549.264 556.426 549.117 556.456 548.969 556.486C548.784 556.524 548.598 556.563 548.412 556.598C548.298 556.62 548.185 556.639 548.072 556.66C547.866 556.697 547.66 556.734 547.454 556.768C547.309 556.792 547.165 556.814 547.02 556.836C546.848 556.862 546.675 556.888 546.502 556.912C546.355 556.932 546.208 556.95 546.061 556.968C545.862 556.993 545.663 557.018 545.463 557.04C545.372 557.05 545.28 557.058 545.188 557.067C544.95 557.091 544.713 557.115 544.474 557.134C544.369 557.143 544.264 557.149 544.16 557.157C543.936 557.173 543.712 557.189 543.487 557.202C543.366 557.209 543.245 557.214 543.124 557.219C542.917 557.229 542.709 557.239 542.5 557.245C542.358 557.249 542.215 557.25 542.073 557.253C541.875 557.256 541.677 557.261 541.478 557.261C541.356 557.262 541.235 557.259 541.113 557.258C540.894 557.257 540.676 557.255 540.456 557.25C540.338 557.247 540.219 557.241 540.1 557.237C539.879 557.23 539.658 557.223 539.437 557.212C539.309 557.205 539.182 557.195 539.054 557.187C538.843 557.174 538.631 557.162 538.418 557.145C538.268 557.133 538.117 557.119 537.966 557.105C537.777 557.088 537.587 557.072 537.397 557.052C537.241 557.036 537.086 557.016 536.93 556.998C536.733 556.975 536.536 556.954 536.338 556.927C536.248 556.915 536.157 556.901 536.067 556.888C535.806 556.852 535.545 556.815 535.284 556.773C535.24 556.766 535.196 556.758 535.152 556.751C534.506 556.645 533.857 556.525 533.207 556.385C533.121 556.367 533.035 556.346 532.949 556.327C531.638 556.037 530.32 555.681 528.998 555.25C528.751 555.169 528.505 555.087 528.26 555.001C527.77 554.829 527.286 554.645 526.806 554.451C520.573 551.924 515.218 547.539 511.151 542.021C510.994 541.809 510.84 541.595 510.687 541.38C508.856 538.793 507.302 535.971 506.068 532.985C505.965 532.736 505.864 532.486 505.766 532.235C504.585 529.222 503.726 526.051 503.229 522.793C503.188 522.521 503.148 522.249 503.112 521.976C502.821 519.795 502.693 517.577 502.74 515.344C502.764 514.655 502.802 513.972 502.848 513.296C502.924 512.194 503.028 511.11 503.162 510.043C503.232 509.479 503.311 508.92 503.398 508.366C503.493 507.757 503.597 507.153 503.712 506.556C503.792 506.143 503.879 505.733 503.968 505.326C504.154 504.478 504.359 503.642 504.586 502.819C504.99 501.358 505.46 499.937 505.996 498.558C506.085 498.328 506.176 498.099 506.269 497.872C506.475 497.366 506.693 496.868 506.917 496.374C507.401 495.311 507.926 494.274 508.496 493.265C508.972 492.421 509.478 491.596 510.015 490.791C510.686 489.784 511.404 488.808 512.169 487.864C515.997 483.142 521.018 479.207 527.288 476.154L527.289 476.155V476.168H527.315C527.475 476.089 527.637 476.015 527.798 475.939C528.284 475.712 528.772 475.496 529.263 475.294C529.388 475.242 529.513 475.192 529.638 475.142C530.634 474.746 531.642 474.4 532.657 474.103C532.796 474.062 532.935 474.023 533.075 473.984C533.651 473.823 534.23 473.678 534.81 473.549C535.145 473.474 535.48 473.403 535.816 473.339C537.176 473.077 538.544 472.898 539.913 472.799C540.171 472.78 540.429 472.764 540.687 472.751C541.159 472.727 541.631 472.712 542.103 472.707C542.346 472.704 542.589 472.704 542.832 472.706Z" fill="black" fill-opacity="0.56"/>
<path d="M428.842 472.991C443.623 471.447 459.01 478.892 466.632 493.271C470.145 499.935 471.682 507.036 471.841 513.064L471.814 514.035C471.806 514.261 471.795 514.487 471.784 514.712C471.759 515.206 471.729 515.697 471.692 516.186C471.674 516.418 471.656 516.649 471.636 516.88C471.632 516.925 471.628 516.97 471.623 517.015C471.573 517.574 471.515 518.129 471.448 518.679C471.432 518.807 471.414 518.934 471.398 519.061C471.291 519.884 471.168 520.697 471.025 521.502C471.009 521.589 470.993 521.676 470.977 521.762C470.941 521.959 470.905 522.155 470.867 522.35C470.841 522.483 470.813 522.615 470.787 522.748C470.75 522.928 470.714 523.108 470.675 523.287C470.654 523.384 470.632 523.48 470.611 523.577C470.566 523.78 470.521 523.983 470.474 524.184C470.453 524.275 470.43 524.365 470.409 524.456C470.361 524.655 470.313 524.854 470.263 525.052C470.233 525.171 470.202 525.29 470.171 525.408C470.129 525.568 470.088 525.729 470.044 525.888C470.004 526.038 469.961 526.187 469.919 526.336C469.881 526.473 469.843 526.61 469.803 526.747C469.779 526.829 469.755 526.911 469.731 526.993C469.67 527.198 469.609 527.403 469.545 527.606C469.516 527.702 469.485 527.797 469.454 527.892C469.395 528.078 469.335 528.264 469.274 528.449C469.232 528.575 469.189 528.701 469.146 528.827C469.101 528.96 469.057 529.093 469.01 529.225C468.959 529.37 468.907 529.514 468.855 529.658C468.801 529.807 468.747 529.955 468.692 530.103C468.646 530.225 468.599 530.346 468.553 530.466C468.496 530.617 468.439 530.767 468.38 530.917C468.33 531.045 468.277 531.172 468.225 531.299C468.175 531.422 468.127 531.546 468.077 531.668C468.02 531.805 467.962 531.941 467.904 532.077C467.847 532.21 467.79 532.343 467.732 532.475C467.673 532.611 467.612 532.746 467.551 532.881C467.488 533.022 467.424 533.164 467.359 533.304C467.321 533.387 467.283 533.469 467.245 533.551C467.166 533.719 467.087 533.886 467.006 534.052C466.961 534.145 466.916 534.238 466.871 534.331C466.787 534.501 466.701 534.671 466.616 534.84C466.556 534.957 466.496 535.074 466.435 535.191C466.37 535.315 466.305 535.439 466.24 535.562C466.177 535.68 466.115 535.797 466.051 535.914C465.98 536.046 465.907 536.177 465.834 536.307C465.76 536.442 465.685 536.575 465.609 536.709C465.552 536.809 465.495 536.909 465.437 537.008C465.359 537.143 465.28 537.276 465.201 537.409C465.127 537.533 465.053 537.658 464.978 537.781C464.909 537.894 464.84 538.007 464.77 538.119C464.691 538.246 464.611 538.372 464.531 538.498C464.465 538.601 464.399 538.704 464.332 538.806C464.248 538.937 464.163 539.067 464.078 539.197C464.008 539.301 463.939 539.405 463.87 539.508C463.795 539.619 463.72 539.729 463.644 539.839C463.563 539.957 463.48 540.074 463.398 540.191C463.307 540.321 463.214 540.449 463.121 540.578C463.046 540.682 462.971 540.786 462.895 540.889C462.821 540.99 462.746 541.089 462.671 541.189C462.569 541.326 462.466 541.463 462.362 541.598C462.289 541.693 462.215 541.787 462.142 541.881C462.054 541.993 461.966 542.106 461.876 542.217C461.803 542.31 461.728 542.401 461.654 542.493C461.531 542.643 461.408 542.793 461.284 542.942C461.259 542.972 461.235 543.002 461.21 543.031C461.067 543.202 460.921 543.371 460.775 543.54C460.72 543.603 460.664 543.666 460.609 543.729C460.484 543.871 460.359 544.011 460.233 544.151C460.178 544.211 460.124 544.271 460.069 544.331C459.933 544.479 459.797 544.625 459.66 544.771C459.613 544.82 459.566 544.869 459.52 544.918C459.383 545.061 459.246 545.203 459.108 545.344C459.048 545.406 458.987 545.466 458.927 545.527C458.792 545.663 458.658 545.799 458.521 545.932C458.48 545.972 458.44 546.012 458.399 546.051C458.236 546.21 458.071 546.367 457.906 546.522C457.888 546.539 457.871 546.555 457.853 546.572C457.676 546.737 457.498 546.9 457.319 547.062C457.269 547.107 457.22 547.151 457.17 547.195C457.02 547.33 456.868 547.463 456.715 547.595C456.667 547.637 456.618 547.679 456.57 547.72C456.402 547.864 456.235 548.007 456.065 548.148C456.038 548.171 456.01 548.193 455.983 548.216C455.82 548.35 455.656 548.483 455.491 548.615C455.399 548.688 455.307 548.761 455.214 548.834C455.089 548.932 454.964 549.03 454.838 549.127C454.756 549.19 454.674 549.252 454.591 549.314C454.461 549.412 454.33 549.51 454.199 549.607C454.107 549.674 454.015 549.74 453.923 549.806C453.779 549.91 453.635 550.015 453.49 550.117C453.444 550.149 453.398 550.18 453.353 550.212C453.174 550.336 452.995 550.459 452.814 550.581C452.76 550.617 452.706 550.652 452.652 550.688C452.485 550.799 452.318 550.91 452.15 551.018C452.08 551.063 452.008 551.107 451.938 551.152C451.771 551.258 451.605 551.364 451.437 551.467C451.402 551.489 451.366 551.509 451.33 551.531C451.13 551.653 450.929 551.774 450.727 551.892C450.694 551.912 450.661 551.931 450.627 551.951C450.192 552.204 449.752 552.45 449.306 552.688C449.254 552.716 449.202 552.743 449.15 552.77C448.962 552.87 448.773 552.968 448.582 553.064C448.505 553.103 448.427 553.141 448.35 553.179C446.451 554.128 444.461 554.938 442.388 555.593C441.793 555.78 441.194 555.949 440.593 556.101C440.528 556.118 440.462 556.135 440.397 556.151C440.282 556.179 440.168 556.206 440.053 556.233C439.945 556.259 439.837 556.284 439.729 556.308C439.37 556.389 439.011 556.465 438.651 556.534C438.561 556.551 438.471 556.568 438.381 556.585C438.258 556.607 438.135 556.629 438.011 556.65C437.921 556.666 437.83 556.682 437.74 556.697C437.553 556.728 437.366 556.756 437.179 556.784C437.151 556.788 437.122 556.792 437.094 556.797C436.937 556.819 436.78 556.84 436.623 556.861C436.542 556.872 436.461 556.882 436.379 556.892C436.24 556.909 436.101 556.926 435.962 556.941C435.88 556.95 435.798 556.96 435.715 556.968C435.571 556.984 435.426 556.997 435.282 557.01C435.2 557.018 435.118 557.026 435.036 557.033C434.899 557.044 434.763 557.054 434.626 557.064C434.534 557.071 434.442 557.078 434.35 557.084C434.224 557.092 434.098 557.099 433.972 557.106C433.865 557.112 433.757 557.118 433.65 557.123C433.534 557.128 433.418 557.132 433.302 557.136C433.201 557.14 433.1 557.143 432.998 557.146C432.852 557.15 432.706 557.153 432.56 557.155C432.493 557.156 432.426 557.157 432.359 557.158C432.188 557.159 432.017 557.159 431.846 557.158C431.798 557.158 431.749 557.157 431.701 557.157C431.536 557.155 431.37 557.153 431.205 557.149C431.137 557.148 431.069 557.146 431 557.144C430.831 557.139 430.662 557.134 430.494 557.127C430.454 557.125 430.414 557.123 430.374 557.121C430.192 557.112 430.01 557.104 429.828 557.092C429.773 557.089 429.718 557.085 429.663 557.082C429.517 557.072 429.371 557.063 429.226 557.051C429.124 557.044 429.022 557.035 428.92 557.026C428.779 557.014 428.638 557.001 428.497 556.987C428.441 556.982 428.385 556.976 428.329 556.97C428.167 556.954 428.005 556.937 427.843 556.919C427.762 556.909 427.68 556.899 427.599 556.889C427.466 556.873 427.334 556.857 427.202 556.84C427.101 556.826 427 556.812 426.899 556.798C426.769 556.779 426.64 556.76 426.51 556.741C426.431 556.729 426.353 556.716 426.274 556.704C426.127 556.681 425.98 556.657 425.833 556.633C425.763 556.62 425.692 556.608 425.621 556.595C425.468 556.568 425.315 556.541 425.162 556.512C425.102 556.501 425.043 556.489 424.984 556.477C424.824 556.446 424.663 556.416 424.503 556.383C424.444 556.37 424.384 556.357 424.325 556.344C422.267 555.909 420.244 555.302 418.28 554.536C418.192 554.502 418.104 554.468 418.017 554.433C417.907 554.389 417.798 554.344 417.688 554.299C417.582 554.256 417.477 554.214 417.371 554.17C417.248 554.118 417.126 554.064 417.003 554.011C416.932 553.981 416.861 553.951 416.79 553.92C416.622 553.846 416.453 553.77 416.286 553.694C416.251 553.678 416.216 553.663 416.182 553.647C415.835 553.488 415.491 553.323 415.149 553.154C415.069 553.115 414.99 553.076 414.911 553.036C414.777 552.968 414.643 552.9 414.51 552.831C414.448 552.798 414.386 552.766 414.324 552.733C414.225 552.682 414.127 552.63 414.03 552.578C413.905 552.511 413.781 552.444 413.657 552.376C413.579 552.333 413.501 552.289 413.423 552.246C413.323 552.19 413.223 552.134 413.123 552.077C412.987 551.999 412.852 551.921 412.717 551.841C412.669 551.813 412.62 551.785 412.572 551.757C412.419 551.666 412.268 551.575 412.117 551.483C412.07 551.455 412.024 551.427 411.978 551.398C411.842 551.314 411.707 551.23 411.573 551.144C411.514 551.107 411.455 551.07 411.396 551.033C411.266 550.95 411.137 550.865 411.008 550.78C410.947 550.74 410.886 550.7 410.826 550.66C410.703 550.578 410.581 550.496 410.459 550.413C410.375 550.355 410.291 550.297 410.207 550.239C410.098 550.163 409.989 550.087 409.88 550.009C409.813 549.962 409.747 549.914 409.68 549.866C409.563 549.782 409.447 549.697 409.331 549.612C409.272 549.568 409.212 549.524 409.153 549.48C409.036 549.393 408.92 549.305 408.804 549.216C408.73 549.16 408.657 549.103 408.583 549.047C408.466 548.955 408.348 548.864 408.232 548.771C408.192 548.74 408.153 548.708 408.114 548.676C407.981 548.57 407.848 548.463 407.716 548.355C407.649 548.299 407.581 548.243 407.514 548.187C407.42 548.109 407.327 548.03 407.234 547.951C407.142 547.872 407.05 547.793 406.958 547.714C406.866 547.633 406.774 547.553 406.682 547.472C406.599 547.399 406.517 547.324 406.434 547.25C406.359 547.182 406.283 547.114 406.208 547.046C406.121 546.965 406.034 546.884 405.948 546.803C405.524 546.408 405.108 546.002 404.703 545.587C404.646 545.528 404.59 545.469 404.534 545.411C403.798 544.646 403.092 543.849 402.423 543.02C402.178 542.716 401.937 542.41 401.702 542.101C401.466 541.792 401.236 541.48 401.01 541.166C400.672 540.695 400.345 540.218 400.029 539.736C399.818 539.415 399.612 539.091 399.412 538.765C399.211 538.44 399.016 538.111 398.825 537.781C398.443 537.121 398.08 536.452 397.737 535.776C397.565 535.438 397.399 535.097 397.238 534.756C397.157 534.585 397.077 534.414 396.998 534.242C396.685 533.555 396.391 532.86 396.116 532.16C396.047 531.985 395.979 531.81 395.913 531.634C393.589 525.481 392.737 518.874 393.263 512.37C394.316 499.361 400.886 486.761 412.246 479.015V479.028H412.272V479.055C414.82 477.315 417.517 475.951 420.299 474.945C420.918 474.721 421.54 474.515 422.166 474.327C422.48 474.233 422.794 474.144 423.109 474.058C424.053 473.802 425.004 473.586 425.96 473.408C426.279 473.349 426.599 473.294 426.918 473.243C427.558 473.142 428.2 473.058 428.842 472.991Z" fill="black" fill-opacity="0.56"/>
<path d="M631.821 80.5065L631.82 80.5075C683.666 80.9325 721.467 98.9396 746.355 117.235C758.716 126.321 767.84 135.432 773.969 142.411C777.039 145.906 779.377 148.89 781.012 151.1C781.83 152.206 782.476 153.122 782.95 153.815C783.187 154.161 783.382 154.454 783.535 154.685C783.611 154.801 783.676 154.902 783.732 154.988C783.76 155.031 783.786 155.07 783.808 155.105C783.819 155.122 783.829 155.14 783.839 155.155C783.844 155.162 783.851 155.173 783.854 155.177C783.861 155.188 783.867 155.199 763.614 168.075L777.966 183.405C779.888 185.46 780.005 185.59 780.01 185.6C780.008 185.602 780.002 185.607 779.998 185.611C779.991 185.618 779.982 185.627 779.972 185.636C779.952 185.655 779.928 185.677 779.901 185.702C779.846 185.753 779.776 185.818 779.692 185.895C779.523 186.051 779.293 186.261 779.007 186.519C778.435 187.037 777.631 187.754 776.61 188.642C774.569 190.417 771.65 192.884 767.965 195.81C760.618 201.645 750.104 209.404 737.327 217.183C712.322 232.407 676.083 249.294 636.746 249.294C599.92 249.294 572.907 241.142 550.176 228.328C542.861 224.204 535.982 219.556 529.477 214.715L521.752 283.739C544.389 276.282 573.362 269.831 604.905 270.818L604.904 270.819C664.012 272.665 709.248 293.928 739.502 314.7C754.579 325.051 766.095 335.375 774.056 343.376C778.051 347.391 781.197 350.867 783.493 353.535C784.641 354.87 785.582 356.008 786.314 356.916C786.534 357.189 786.734 357.444 786.917 357.675C787.145 357.955 787.407 358.277 787.7 358.643C788.443 359.575 789.392 360.789 790.508 362.273C792.737 365.238 795.657 369.309 798.974 374.39C805.575 384.503 813.941 398.917 821.541 416.855C836.55 452.276 849.484 503.74 837.221 563.088L836.927 564.491C828.347 604.792 807.841 669.191 788.287 725.219C778.347 753.699 768.323 780.952 759.664 803.123C751.572 823.842 743.27 843.823 736.945 855.071C715.435 893.318 672.878 939.667 603.85 947.943C557.392 953.513 519.841 936.214 495.208 919.245C471.502 936.686 432.765 957.525 385.43 951.849C313.763 943.255 272.045 889.853 252.484 855.071C246.158 843.822 237.855 823.841 229.764 803.122C221.106 780.951 211.084 753.698 201.145 725.218C181.592 669.19 161.088 604.795 152.503 564.499L152.501 564.491C139.741 504.551 152.76 452.555 167.887 416.855C175.488 398.918 183.853 384.503 190.454 374.39C193.771 369.309 196.691 365.238 198.92 362.273C200.036 360.789 200.984 359.575 201.728 358.643C202.006 358.295 202.257 357.987 202.477 357.717C202.668 357.476 202.878 357.208 203.111 356.92C203.843 356.012 204.784 354.874 205.933 353.539C208.229 350.871 211.374 347.394 215.369 343.379C223.329 335.377 234.845 325.052 249.921 314.7C280.175 293.927 325.412 272.665 384.523 270.819C419.027 269.739 450.067 277.55 473.206 285.941L486.649 165.831C487.139 161.454 488.778 157.485 491.23 154.189C491.232 154.185 491.235 154.181 491.237 154.177C492.543 151.781 494.432 148.572 496.983 144.83C502.074 137.36 509.885 127.638 521.077 118.002C543.819 98.4179 579.544 80.0737 631.821 80.5065ZM493.614 357.499C493.476 357.408 444.043 324.983 386.274 326.791L384.121 326.869C293.451 330.646 246.312 392.559 246.144 392.78C246.144 392.78 187.914 461.891 207.274 552.831C222.834 625.87 285.024 798.689 301.294 827.621C317.564 856.551 346.898 890.828 392.098 896.248C449.264 903.102 494.622 842.726 494.724 842.591C494.783 842.672 535.178 898.81 595.748 892.502L597.184 892.341C641.687 887.006 670.939 857.493 687.362 828.977L688.134 827.621C704.278 798.915 765.636 628.561 781.782 554.56L782.155 552.831C801.514 461.891 743.285 392.78 743.285 392.78C743.14 392.589 695.99 330.647 605.308 326.869L603.154 326.791C545.382 324.984 493.77 357.4 493.614 357.499ZM631.423 128.505C591.641 128.175 567.002 141.799 552.398 154.375C548.61 157.636 545.431 160.889 542.805 163.907C553.368 172.801 562.608 180.235 573.747 186.514C588.96 195.09 607.798 201.294 636.746 201.294C663.185 201.294 690.38 189.57 712.365 176.184C718.616 172.378 724.24 168.563 729.064 165.075C725.888 162.154 722.181 159.038 717.925 155.91C699.832 142.61 671.637 128.834 631.425 128.505H631.423Z" fill="black" fill-opacity="0.56"/>
<path d="M783.868 155.199C790.058 164.937 788.442 177.703 780.02 185.591L763.614 168.075L783.868 155.199Z" fill="black" fill-opacity="0.56"/>
</svg>
