<svg width="1020" height="1020" viewBox="0 0 1020 1020" fill="none" xmlns="http://www.w3.org/2000/svg">
<path d="M544.075 801.466C569.501 746.513 652.178 679.31 811.085 723.241L544.075 801.466Z" fill="white"/>
<path d="M236.557 726.76C306.082 712.729 362.892 721.868 404.465 740.731C439.777 756.754 463.095 778.988 475.768 800.039L236.557 726.76Z" fill="white"/>
<path d="M213.527 261.883C306.153 237.19 365.834 247.249 405.712 267.497C448.421 289.184 472.712 324.591 490.87 354.505C495.266 361.747 503.156 366.136 511.627 366.051C520.098 365.966 527.897 361.42 532.147 354.091C547.742 327.198 577.295 291.442 625.222 269.266C670.031 248.532 733.151 238.616 820.101 261.882L857.346 687.471C675.684 625.275 555.453 686.125 508.979 763.348C489.493 736.859 460.183 713.303 424.298 697.02C362.778 669.106 279.402 660.683 180.933 691.65L213.527 261.883ZM463.008 379.384C452.859 368.708 435.141 364.343 420.411 371.533H420.385V371.519C404.019 379.492 396.005 393.358 395.356 411.494C394.978 429.71 405.992 446.954 422.128 452.198C445.399 459.792 467.277 445.44 473.494 423.629C478.17 407.196 475.17 392.168 463.008 379.384ZM625.555 388.891C614.743 368.485 588.607 361.768 570.134 374.39V374.364H570.106V374.35C548.931 388.797 544.079 419.798 560.093 439.636C569.674 451.515 586.297 457.029 600.838 452.461C618.609 446.84 630.447 430.27 630.866 409.08C630.704 402.932 629.136 395.688 625.555 388.891Z" fill="white"/>
<path d="M420.411 371.533C435.142 364.343 452.859 368.708 463.008 379.384C475.171 392.168 478.17 407.196 473.494 423.629C467.278 445.441 445.399 459.792 422.128 452.198C405.992 446.954 394.978 429.71 395.357 411.493C396.005 393.358 404.02 379.492 420.385 371.519V371.533H420.411Z" fill="black" fill-opacity="0.56"/>
<path d="M570.134 374.39C588.608 361.768 614.744 368.485 625.555 388.891C629.136 395.688 630.704 402.932 630.866 409.08C630.448 430.27 618.609 446.839 600.838 452.461C586.297 457.029 569.674 451.515 560.093 439.636C544.079 419.798 548.931 388.797 570.107 374.35V374.364H570.134V374.39Z" fill="black" fill-opacity="0.56"/>
<path d="M179.464 205.002C292.257 171.461 374.166 179.702 434.689 210.433C468.671 227.688 493.693 250.995 512.509 273.748C533.761 250.756 561.963 228.018 598.347 211.183C661.926 181.765 746.279 172.337 854.182 205.066C869.815 209.808 880.996 223.581 882.42 239.856L924.714 723.149C926.376 742.138 914.405 759.663 896.112 765.023L522.633 874.44C515.13 876.638 507.147 876.589 499.671 874.299L142.495 764.882C124.611 759.404 112.911 742.261 114.325 723.611L150.98 240.319L151.046 239.545C152.589 223.343 163.814 209.656 179.464 205.002ZM811.085 723.241C652.178 679.31 569.501 746.513 544.075 801.466L811.085 723.241ZM404.465 740.731C362.892 721.867 306.082 712.729 236.557 726.76L475.768 800.039C463.095 778.988 439.778 756.754 404.465 740.731ZM405.712 267.497C365.834 247.249 306.153 237.19 213.528 261.883L180.933 691.65C279.402 660.683 362.778 669.106 424.298 697.02C460.184 713.303 489.493 736.859 508.979 763.348C555.453 686.125 675.684 625.275 857.346 687.471L820.101 261.882C733.151 238.616 670.032 248.532 625.222 269.266C577.295 291.442 547.743 327.197 532.148 354.091C527.898 361.42 520.099 365.966 511.627 366.051C503.156 366.136 495.267 361.747 490.87 354.505C472.713 324.591 448.422 289.184 405.712 267.497Z" fill="black" fill-opacity="0.56"/>
</svg>
