<svg width="1020" height="1020" viewBox="0 0 1020 1020" fill="none" xmlns="http://www.w3.org/2000/svg">
<path d="M593.727 784.389C593.555 785.613 593.385 786.833 593.215 788.047C592.698 791.737 592.188 795.377 591.69 798.95C591.389 801.115 591.092 803.255 590.799 805.366C590.376 808.41 589.963 811.395 589.561 814.309C589.364 815.728 589.169 817.131 588.979 818.516C588.473 822.183 587.986 825.724 587.521 829.113C586.649 835.467 585.854 841.287 585.157 846.408C584.4 851.974 583.758 856.715 583.258 860.419C582.486 866.135 582.05 869.382 582.05 869.382H353.483C353.483 869.382 354.597 861.381 356.799 846.129C357.792 839.252 359.006 830.9 360.44 821.144C360.478 820.887 360.517 820.629 360.555 820.369C362.09 809.931 363.873 797.91 365.901 784.389H593.727Z" fill="white"/>
<path d="M533.062 151C598.763 151.076 666.775 169.23 721.659 202.147C722.006 202.355 722.353 202.563 722.698 202.772C729.682 206.997 736.451 211.462 742.973 216.161C743.616 216.625 744.257 217.092 744.896 217.56C805.385 261.907 843.97 326.577 834.433 405.946C830.723 439.553 822.155 463.682 810.329 482.934C810.118 483.278 809.906 483.62 809.692 483.96C803.082 494.522 795.481 503.614 787.161 512.017C786.088 513.101 785.002 514.174 783.905 515.237C782.808 516.3 781.7 517.353 780.581 518.399C778.903 519.966 777.2 521.515 775.475 523.052C767.999 529.711 760.103 536.133 751.948 542.779C751.426 543.205 750.903 543.627 750.381 544.045C748.293 545.72 746.212 547.335 744.14 548.897C743.103 549.677 742.069 550.445 741.037 551.198C740.005 551.952 738.975 552.694 737.947 553.422C734.865 555.607 731.803 557.678 728.767 559.651C727.248 560.637 725.736 561.599 724.231 562.537C723.228 563.163 722.228 563.779 721.23 564.385C717.741 566.506 714.29 568.508 710.886 570.414C709.427 571.231 707.976 572.031 706.534 572.815C705.573 573.337 704.615 573.852 703.662 574.361C701.756 575.378 699.867 576.37 697.995 577.34C696.123 578.31 694.269 579.258 692.435 580.188C690.6 581.118 688.784 582.03 686.988 582.929C681.601 585.626 676.398 588.203 671.41 590.772C669.748 591.628 668.11 592.483 666.497 593.342C663.271 595.06 660.146 596.792 657.133 598.571C655.626 599.46 654.147 600.36 652.697 601.278C649.072 603.571 645.629 605.964 642.388 608.524C641.091 609.547 639.827 610.597 638.596 611.678C635.518 614.38 632.65 617.275 630.011 620.428C628.955 621.689 627.936 622.991 626.954 624.339C625.482 626.361 624.095 628.486 622.797 630.727C622.287 631.607 621.794 632.507 621.312 633.424C619.544 636.787 617.964 640.402 616.587 644.314C616.268 645.219 615.96 646.14 615.663 647.077C615.128 648.766 614.632 650.509 614.169 652.308C613.608 654.487 613.099 656.748 612.646 659.097C612.54 659.652 612.436 660.212 612.335 660.778C612.163 661.745 611.987 662.747 611.808 663.78C611.778 663.951 611.748 664.123 611.718 664.296C611.56 665.207 611.399 666.142 611.236 667.1C611.181 667.424 611.126 667.75 611.07 668.079C610.814 669.594 610.552 671.164 610.284 672.785C610.058 674.156 609.829 675.563 609.595 677.005C609.475 677.743 609.354 678.49 609.232 679.245C608.95 681 608.662 682.801 608.37 684.645C608.29 685.154 608.209 685.667 608.128 686.183C607.859 687.887 607.587 689.627 607.312 691.398C607.236 691.886 607.159 692.377 607.083 692.87C606.954 693.701 606.826 694.539 606.696 695.383C606.32 697.826 605.937 700.323 605.551 702.866C605.448 703.54 605.345 704.217 605.242 704.898C603.731 714.882 602.155 725.542 600.567 736.454H553.729L591.98 472.225C593.189 463.872 587.56 455.696 579.181 453.635C570.81 451.577 562.631 456.343 560.572 464.474C560.57 464.481 560.565 464.503 560.556 464.538C560.537 464.611 560.502 464.742 560.451 464.927C560.35 465.298 560.184 465.888 559.953 466.661C559.49 468.211 558.767 470.488 557.769 473.247C555.754 478.815 552.7 486.107 548.521 493.278C539.588 508.606 528.474 518.556 515.498 518.556C509.309 518.556 506.117 516.49 503.82 513.954C500.953 510.788 498.527 505.67 496.872 498.853C495.263 492.222 494.7 485.305 494.581 479.845C494.523 477.165 494.574 474.948 494.637 473.438C494.668 472.686 494.701 472.115 494.725 471.758C494.736 471.58 494.746 471.455 494.751 471.389C494.752 471.377 494.752 471.366 494.753 471.358C495.507 462.793 489.25 454.826 480.634 453.383C472.015 451.941 464.169 457.552 462.934 466.04L423.6 736.454H373.17C374.827 725.641 376.585 714.228 378.447 702.24C379.502 689.267 380.551 677.116 381.157 665.807C381.238 664.299 381.311 662.806 381.375 661.327C381.567 656.893 381.678 652.595 381.682 648.432C381.683 647.045 381.671 645.673 381.647 644.316C381.635 643.637 381.62 642.962 381.602 642.29C381.564 640.949 381.514 639.622 381.448 638.311C381.35 636.343 381.219 634.41 381.051 632.511C380.827 629.979 380.538 627.509 380.177 625.101C379.951 623.596 379.696 622.114 379.411 620.657C379.297 620.074 379.179 619.495 379.055 618.92C378.993 618.633 378.929 618.346 378.864 618.061C378.606 616.918 378.328 615.791 378.028 614.68C377.953 614.402 377.877 614.125 377.8 613.849C377.645 613.297 377.484 612.749 377.317 612.205C376.819 610.573 376.271 608.976 375.669 607.414C371.957 597.783 366.215 589.49 357.621 582.572C355.763 581.076 353.501 579.399 350.899 577.536C350.249 577.071 349.578 576.594 348.886 576.105C335.51 566.653 314.569 552.831 293.255 534.068C291.969 532.936 290.681 531.787 289.394 530.618C287.738 529.116 286.084 527.584 284.433 526.022C283.332 524.98 282.233 523.925 281.137 522.857C272.914 514.843 264.841 506.069 257.337 496.502C256.336 495.227 255.346 493.937 254.367 492.633C253.388 491.329 252.42 490.011 251.464 488.679C248.835 485.015 246.297 481.243 243.871 477.362C243.024 476.006 242.191 474.637 241.372 473.255C241.213 472.987 241.056 472.718 240.898 472.449C240.599 471.939 240.301 471.427 240.006 470.912C239.588 470.185 239.175 469.454 238.766 468.719C237.947 467.249 237.145 465.765 236.361 464.266C236.165 463.891 235.971 463.515 235.777 463.139C235.493 462.586 235.211 462.031 234.932 461.474C234.687 460.986 234.444 460.497 234.203 460.006C233.782 459.149 233.367 458.288 232.958 457.421C232.048 455.492 231.168 453.539 230.32 451.564C229.981 450.773 229.647 449.98 229.318 449.182C228.825 447.985 228.344 446.78 227.875 445.567C227.562 444.758 227.255 443.945 226.953 443.129C226.802 442.721 226.653 442.311 226.505 441.901C225.469 439.03 224.502 436.112 223.609 433.149C222.717 430.185 221.899 427.174 221.161 424.116C220.55 421.586 219.995 419.023 219.496 416.428C219.168 414.722 218.866 413.001 218.589 411.267C218.196 408.809 217.853 406.323 217.566 403.808C215.707 387.501 216.128 369.995 219.495 351.236C220.094 347.899 220.747 344.616 221.451 341.384C221.62 340.609 221.792 339.837 221.967 339.069C222.583 336.357 223.235 333.683 223.925 331.046C224.177 330.082 224.434 329.123 224.695 328.169C240.398 270.896 273.356 231.207 314.963 204.155C315.608 203.735 316.255 203.318 316.904 202.905C320.121 200.856 323.389 198.882 326.703 196.98C327.391 196.585 328.082 196.193 328.774 195.804C329.383 195.462 329.994 195.122 330.605 194.784C330.994 194.57 331.383 194.357 331.772 194.145C332.625 193.68 333.481 193.22 334.339 192.765C334.842 192.498 335.346 192.233 335.851 191.969C336.479 191.641 337.109 191.315 337.74 190.991C338.275 190.717 338.811 190.445 339.348 190.174C343.432 188.115 347.574 186.154 351.77 184.287C352.93 183.771 354.095 183.263 355.264 182.761C396.649 164.985 442.89 156.178 487.753 152.756C489.635 152.613 491.514 152.479 493.391 152.354C498.801 151.994 504.187 151.711 509.538 151.498C511.22 151.431 512.899 151.37 514.573 151.317C519.564 151.158 524.521 151.059 529.436 151.015C530.644 151.004 531.853 150.999 533.062 151ZM589.72 279.982C588.604 279.994 587.488 280.062 586.378 280.188C585.934 280.238 585.49 280.298 585.048 280.366C584.605 280.435 584.164 280.513 583.724 280.601C583.284 280.689 582.846 280.786 582.409 280.893C582.191 280.946 581.972 281.002 581.755 281.061C580.885 281.294 580.022 281.566 579.17 281.879C578.744 282.036 578.32 282.202 577.898 282.379C577.267 282.644 576.641 282.932 576.023 283.243H575.999V283.231C575.157 283.654 574.342 284.096 573.553 284.555C572.839 284.97 572.146 285.398 571.476 285.841C570.062 286.775 568.743 287.772 567.517 288.83C566.643 289.584 565.817 290.368 565.037 291.183C560.965 295.436 558.161 300.516 556.557 306.321C556.462 306.662 556.374 307.006 556.288 307.352C555.306 311.307 554.861 315.586 554.938 320.159C554.982 321.565 555.102 322.965 555.288 324.353C555.309 324.511 555.329 324.669 555.353 324.827C555.408 325.208 555.47 325.588 555.536 325.967C555.558 326.092 555.58 326.218 555.603 326.343C555.621 326.442 555.64 326.542 555.659 326.641C555.691 326.806 555.722 326.971 555.756 327.136C555.76 327.155 555.764 327.175 555.768 327.195C555.866 327.678 555.974 328.159 556.089 328.638C556.177 329.003 556.271 329.367 556.368 329.73C556.476 330.132 556.589 330.533 556.708 330.932C556.719 330.97 556.732 331.008 556.743 331.046C556.804 331.246 556.865 331.446 556.929 331.646C556.945 331.698 556.963 331.749 556.979 331.801C557.043 331.997 557.106 332.193 557.172 332.388C557.202 332.478 557.234 332.567 557.265 332.656C557.317 332.808 557.37 332.96 557.424 333.111C557.461 333.213 557.499 333.316 557.536 333.418C557.587 333.557 557.638 333.697 557.69 333.835C557.738 333.961 557.787 334.087 557.836 334.213C557.873 334.309 557.91 334.406 557.948 334.502C558.01 334.658 558.073 334.812 558.137 334.967C558.175 335.06 558.212 335.153 558.251 335.245C558.297 335.354 558.343 335.463 558.39 335.572C558.445 335.701 558.501 335.831 558.558 335.96C558.605 336.068 558.653 336.175 558.701 336.282C558.755 336.402 558.808 336.521 558.862 336.64C558.916 336.757 558.971 336.873 559.025 336.989C559.084 337.115 559.143 337.241 559.203 337.365C559.256 337.475 559.31 337.584 559.363 337.693C559.424 337.816 559.485 337.941 559.547 338.064C559.599 338.167 559.653 338.27 559.706 338.373C559.767 338.493 559.828 338.612 559.891 338.731C559.95 338.844 560.01 338.956 560.07 339.069C560.134 339.188 560.199 339.307 560.264 339.425C560.312 339.514 560.361 339.603 560.41 339.692C560.485 339.826 560.561 339.96 560.638 340.094C560.697 340.197 560.757 340.3 560.816 340.403C560.882 340.514 560.947 340.626 561.013 340.738C561.071 340.835 561.13 340.933 561.188 341.031C561.26 341.149 561.332 341.267 561.404 341.384C561.476 341.5 561.549 341.615 561.621 341.73C561.685 341.83 561.748 341.931 561.812 342.031C561.885 342.144 561.959 342.257 562.033 342.369C562.096 342.464 562.158 342.56 562.221 342.655C562.293 342.763 562.367 342.872 562.44 342.98C562.511 343.084 562.583 343.188 562.654 343.291C562.724 343.391 562.793 343.491 562.863 343.59C562.94 343.698 563.017 343.806 563.095 343.913C563.16 344.004 563.225 344.095 563.291 344.185C563.378 344.303 563.465 344.42 563.553 344.537C563.64 344.654 563.728 344.77 563.816 344.885C563.867 344.951 563.917 345.016 563.968 345.081C564.057 345.197 564.147 345.313 564.237 345.427C564.314 345.524 564.393 345.621 564.471 345.718C564.549 345.816 564.628 345.913 564.708 346.01C564.79 346.11 564.873 346.21 564.956 346.309C565.035 346.403 565.114 346.497 565.193 346.59C565.289 346.703 565.386 346.815 565.483 346.926C565.544 346.995 565.604 347.064 565.665 347.133C565.772 347.254 565.88 347.375 565.988 347.495C566.047 347.56 566.106 347.625 566.165 347.69C566.286 347.822 566.409 347.953 566.531 348.083C566.569 348.123 566.606 348.164 566.644 348.203C566.754 348.32 566.866 348.437 566.979 348.552C567.061 348.637 567.145 348.722 567.229 348.807C567.312 348.892 567.397 348.976 567.481 349.06C567.573 349.151 567.666 349.242 567.759 349.332C567.844 349.416 567.93 349.499 568.017 349.581C568.116 349.677 568.217 349.772 568.317 349.866C568.396 349.94 568.475 350.013 568.554 350.085C568.657 350.18 568.761 350.275 568.865 350.369C568.948 350.444 569.032 350.518 569.115 350.592C569.211 350.676 569.306 350.761 569.402 350.844C569.512 350.939 569.622 351.033 569.732 351.126C569.808 351.19 569.884 351.255 569.96 351.319C570.081 351.42 570.203 351.519 570.325 351.618C570.386 351.668 570.447 351.718 570.509 351.768C570.624 351.86 570.74 351.951 570.855 352.042C570.948 352.115 571.041 352.188 571.135 352.26C571.24 352.341 571.347 352.421 571.453 352.501C571.543 352.569 571.634 352.637 571.725 352.704C571.855 352.8 571.987 352.895 572.118 352.989C572.179 353.033 572.24 353.078 572.301 353.121C572.453 353.229 572.607 353.334 572.761 353.44C572.814 353.476 572.867 353.513 572.92 353.549C573.037 353.629 573.156 353.707 573.274 353.785C573.364 353.844 573.453 353.904 573.543 353.962C573.68 354.051 573.817 354.137 573.955 354.224C574.025 354.268 574.094 354.312 574.164 354.356C574.286 354.431 574.41 354.505 574.533 354.579C574.622 354.633 574.711 354.687 574.8 354.739C574.925 354.813 575.051 354.885 575.177 354.957C575.269 355.01 575.362 355.064 575.455 355.116C575.598 355.196 575.741 355.274 575.885 355.352C575.946 355.385 576.007 355.419 576.068 355.451C576.426 355.642 576.787 355.826 577.151 356.004C577.232 356.044 577.313 356.084 577.395 356.123C577.759 356.298 578.127 356.464 578.497 356.625C578.577 356.66 578.657 356.696 578.737 356.73C579.09 356.88 579.447 357.023 579.805 357.16C580.105 357.276 580.408 357.388 580.712 357.494C580.976 357.587 581.241 357.677 581.507 357.763C581.847 357.873 582.186 357.978 582.524 358.077C587.265 359.474 591.885 359.911 596.253 359.528C596.565 359.5 596.876 359.469 597.186 359.433C597.495 359.397 597.803 359.357 598.11 359.313C601.484 358.83 604.691 357.853 607.669 356.45C607.956 356.315 608.24 356.175 608.522 356.032C610.429 355.067 612.236 353.924 613.926 352.623C614.349 352.298 614.766 351.964 615.174 351.618C615.402 351.426 615.628 351.23 615.851 351.031C617.19 349.839 618.443 348.539 619.598 347.144C619.79 346.911 619.98 346.676 620.167 346.439C620.554 345.947 620.929 345.444 621.292 344.93C624.088 340.975 626.161 336.386 627.32 331.37C629.508 321.882 628.967 312.901 625.375 304.616C625.129 304.049 624.867 303.486 624.593 302.926C623.664 301.03 622.571 299.171 621.309 297.354C621.172 297.158 621.035 296.961 620.895 296.766C620.334 295.985 619.741 295.211 619.116 294.446C618.336 293.488 617.505 292.542 616.624 291.61C616.272 291.237 615.911 290.865 615.542 290.496C615.188 290.141 614.824 289.795 614.453 289.455C613.947 288.992 613.425 288.543 612.89 288.109C612.625 287.895 612.359 287.683 612.088 287.476C611.564 287.076 611.027 286.69 610.479 286.319C610.297 286.195 610.113 286.073 609.929 285.952C609.744 285.832 609.558 285.713 609.371 285.596C609.184 285.479 608.995 285.363 608.806 285.249C608.237 284.907 607.658 284.58 607.07 284.269C606.678 284.061 606.282 283.86 605.882 283.666C605.482 283.473 605.079 283.286 604.672 283.107C604.468 283.017 604.264 282.928 604.059 282.842C603.648 282.67 603.234 282.505 602.817 282.347C602.192 282.11 601.56 281.89 600.923 281.688C600.71 281.62 600.497 281.554 600.283 281.49C597.291 280.598 594.181 280.082 591.059 279.993C590.613 279.981 590.166 279.977 589.72 279.982ZM492.665 280.481C484.245 279.18 475.559 280.862 468.4 285.963L468.399 285.939H468.374V285.926C468.172 286.069 467.972 286.216 467.774 286.363C467.205 286.785 466.65 287.222 466.111 287.673C465.913 287.839 465.717 288.006 465.523 288.175C465.17 288.484 464.823 288.798 464.483 289.118C464.283 289.307 464.085 289.496 463.89 289.689C463.715 289.861 463.543 290.037 463.372 290.212C462.686 290.915 462.029 291.642 461.405 292.392C460.514 293.463 459.687 294.58 458.923 295.737C458.579 296.257 458.25 296.787 457.932 297.323C457.544 297.978 457.172 298.642 456.823 299.318C456.029 300.854 455.337 302.442 454.746 304.07C454.628 304.395 454.514 304.723 454.404 305.052C454.241 305.539 454.09 306.03 453.945 306.523C453.602 307.693 453.306 308.88 453.064 310.079C452.859 311.102 452.69 312.135 452.56 313.173C452.472 313.865 452.402 314.561 452.349 315.258C452.135 318.047 452.19 320.868 452.521 323.672C452.604 324.373 452.705 325.073 452.822 325.772C453.409 329.262 454.426 332.705 455.888 336.004C456.18 336.664 456.49 337.318 456.818 337.966C458.13 340.556 459.726 343.041 461.612 345.371C461.848 345.663 462.088 345.952 462.333 346.239L462.777 346.748C463.973 348.096 465.263 349.351 466.63 350.507C466.86 350.702 467.093 350.893 467.328 351.082C467.609 351.309 467.893 351.533 468.181 351.751C468.247 351.802 468.314 351.852 468.381 351.902C468.476 351.973 468.571 352.045 468.667 352.115C468.786 352.203 468.906 352.289 469.025 352.375C469.084 352.417 469.142 352.46 469.201 352.501C469.283 352.56 469.367 352.617 469.449 352.675C469.567 352.757 469.685 352.839 469.804 352.92C469.877 352.97 469.95 353.019 470.023 353.069C470.113 353.129 470.203 353.189 470.293 353.248C470.413 353.327 470.534 353.405 470.654 353.483C470.729 353.531 470.804 353.58 470.879 353.627C470.938 353.664 470.997 353.702 471.056 353.739C471.188 353.822 471.322 353.904 471.455 353.986C471.551 354.044 471.647 354.102 471.743 354.159C471.825 354.208 471.906 354.257 471.988 354.305C472.098 354.369 472.207 354.433 472.317 354.496C472.401 354.545 472.485 354.593 472.569 354.641C472.678 354.702 472.788 354.763 472.897 354.823C472.978 354.868 473.059 354.913 473.14 354.957C473.252 355.018 473.365 355.079 473.478 355.139C473.564 355.185 473.65 355.231 473.736 355.276C473.834 355.327 473.933 355.377 474.031 355.427C474.131 355.478 474.231 355.529 474.331 355.579C474.436 355.632 474.541 355.683 474.646 355.735C474.735 355.778 474.824 355.822 474.913 355.864C475.011 355.911 475.11 355.958 475.208 356.004C475.315 356.055 475.423 356.104 475.531 356.154C475.637 356.202 475.743 356.25 475.85 356.297C475.922 356.329 475.994 356.362 476.066 356.394C476.2 356.453 476.335 356.51 476.47 356.568C476.547 356.601 476.625 356.635 476.703 356.667C476.802 356.709 476.902 356.75 477.001 356.79C477.129 356.843 477.258 356.895 477.387 356.946C477.456 356.973 477.525 357 477.595 357.027C477.71 357.072 477.826 357.116 477.942 357.16C478.048 357.2 478.153 357.24 478.259 357.279C478.355 357.314 478.452 357.349 478.549 357.384C478.659 357.423 478.769 357.463 478.879 357.501C478.977 357.536 479.076 357.569 479.175 357.603C479.277 357.638 479.38 357.672 479.483 357.706C479.591 357.742 479.699 357.777 479.807 357.812C479.906 357.844 480.007 357.875 480.106 357.906C480.208 357.938 480.309 357.97 480.41 358C480.525 358.035 480.64 358.068 480.755 358.102C480.848 358.129 480.942 358.156 481.036 358.183C481.141 358.213 481.246 358.242 481.352 358.271C481.467 358.302 481.583 358.334 481.698 358.364C481.795 358.39 481.892 358.415 481.988 358.44C482.084 358.464 482.181 358.488 482.277 358.512C482.402 358.543 482.527 358.572 482.651 358.602C482.739 358.622 482.827 358.643 482.915 358.663C483.038 358.691 483.16 358.719 483.283 358.745C483.367 358.763 483.451 358.782 483.534 358.799C483.656 358.825 483.778 358.85 483.9 358.874C484.004 358.895 484.109 358.915 484.213 358.935C484.333 358.958 484.454 358.98 484.574 359.001C484.641 359.013 484.708 359.025 484.774 359.036C484.908 359.06 485.042 359.083 485.176 359.105C485.285 359.122 485.394 359.139 485.503 359.156C485.61 359.172 485.718 359.188 485.825 359.203C485.905 359.215 485.984 359.226 486.063 359.237C486.205 359.256 486.347 359.275 486.489 359.293C486.563 359.302 486.638 359.311 486.712 359.32C486.846 359.335 486.98 359.351 487.113 359.365C487.196 359.374 487.279 359.383 487.361 359.391C487.491 359.404 487.621 359.417 487.751 359.428C487.856 359.437 487.961 359.445 488.066 359.453C488.165 359.461 488.264 359.469 488.363 359.476C488.461 359.483 488.56 359.489 488.658 359.495C488.788 359.503 488.919 359.511 489.049 359.518C489.12 359.521 489.191 359.524 489.262 359.528C489.41 359.534 489.559 359.54 489.707 359.544C489.757 359.546 489.808 359.547 489.858 359.548C490.015 359.552 490.172 359.556 490.328 359.558C490.387 359.559 490.445 359.559 490.504 359.56H491.05C491.239 359.558 491.428 359.555 491.616 359.55C491.665 359.549 491.715 359.547 491.764 359.545C492.358 359.527 492.951 359.495 493.542 359.445C493.572 359.442 493.602 359.438 493.632 359.436C493.811 359.42 493.99 359.404 494.168 359.385C494.21 359.381 494.251 359.376 494.293 359.371C494.464 359.353 494.636 359.334 494.807 359.313C494.845 359.308 494.883 359.302 494.921 359.297C495.089 359.276 495.257 359.254 495.424 359.23C495.492 359.22 495.561 359.209 495.629 359.198C495.77 359.177 495.91 359.155 496.051 359.132C496.16 359.114 496.269 359.094 496.378 359.074C496.472 359.058 496.566 359.043 496.659 359.026C496.754 359.008 496.849 358.988 496.944 358.969C498.107 358.741 499.259 358.45 500.392 358.086C501.829 357.621 503.218 357.072 504.557 356.449C504.601 356.429 504.645 356.409 504.689 356.388C504.852 356.311 505.014 356.232 505.176 356.154C505.246 356.119 505.317 356.086 505.387 356.051C505.8 355.845 506.208 355.631 506.611 355.41C506.647 355.391 506.684 355.372 506.72 355.352C507.102 355.141 507.48 354.923 507.854 354.698C507.919 354.659 507.985 354.619 508.051 354.579C508.188 354.496 508.324 354.411 508.46 354.325C508.53 354.281 508.602 354.237 508.672 354.193C508.826 354.094 508.978 353.993 509.131 353.892C509.188 353.854 509.246 353.817 509.303 353.779C509.444 353.684 509.585 353.586 509.725 353.489C509.791 353.444 509.857 353.399 509.923 353.353C510.081 353.242 510.238 353.129 510.395 353.016C510.436 352.986 510.477 352.956 510.518 352.926C510.654 352.826 510.788 352.725 510.923 352.623C510.996 352.568 511.07 352.512 511.144 352.456C511.27 352.359 511.395 352.26 511.521 352.161C511.59 352.106 511.66 352.052 511.729 351.996C511.846 351.903 511.962 351.807 512.077 351.712C512.157 351.647 512.237 351.581 512.315 351.515C512.465 351.389 512.614 351.262 512.762 351.134C512.789 351.11 512.816 351.086 512.843 351.063C512.993 350.931 513.142 350.799 513.29 350.665C513.343 350.618 513.396 350.57 513.448 350.522C513.552 350.427 513.654 350.33 513.757 350.234C513.838 350.158 513.919 350.083 513.999 350.006C514.131 349.88 514.262 349.752 514.393 349.623C514.424 349.592 514.456 349.56 514.487 349.529C514.637 349.379 514.786 349.228 514.934 349.076C514.955 349.055 514.976 349.034 514.997 349.012C515.137 348.867 515.276 348.72 515.414 348.572C515.462 348.521 515.509 348.47 515.557 348.419C515.676 348.29 515.794 348.158 515.911 348.027C515.957 347.976 516.003 347.925 516.048 347.873C516.152 347.755 516.256 347.636 516.359 347.517C516.438 347.426 516.516 347.334 516.594 347.242C516.665 347.158 516.736 347.072 516.807 346.987C516.89 346.886 516.973 346.784 517.056 346.682C517.155 346.559 517.254 346.435 517.353 346.31C517.393 346.258 517.433 346.206 517.474 346.155C517.606 345.984 517.738 345.814 517.868 345.641C517.891 345.611 517.912 345.58 517.935 345.55C518.046 345.4 518.157 345.25 518.267 345.098C518.307 345.042 518.348 344.986 518.388 344.93C518.494 344.781 518.599 344.631 518.703 344.48C518.745 344.418 518.787 344.357 518.829 344.295C518.916 344.168 519.002 344.041 519.087 343.913C519.157 343.808 519.227 343.702 519.296 343.596C519.374 343.475 519.451 343.353 519.528 343.232C519.572 343.163 519.615 343.095 519.658 343.026C519.755 342.87 519.852 342.715 519.946 342.558C519.98 342.502 520.013 342.445 520.047 342.389C520.144 342.227 520.239 342.064 520.334 341.9C520.381 341.818 520.427 341.737 520.474 341.656C520.553 341.516 520.631 341.375 520.708 341.235C520.745 341.167 520.782 341.099 520.819 341.031C520.898 340.885 520.977 340.74 521.054 340.593C521.111 340.484 521.167 340.375 521.224 340.265C521.288 340.14 521.352 340.014 521.415 339.888C521.465 339.788 521.514 339.688 521.563 339.587C521.632 339.448 521.699 339.308 521.766 339.168C521.808 339.079 521.85 338.989 521.892 338.9C521.969 338.734 522.045 338.568 522.12 338.401C522.15 338.334 522.179 338.268 522.208 338.201C522.273 338.055 522.337 337.907 522.4 337.759C522.438 337.671 522.476 337.583 522.513 337.494C522.583 337.327 522.653 337.159 522.721 336.989C522.754 336.908 522.785 336.825 522.817 336.742C522.878 336.59 522.938 336.436 522.997 336.282C523.032 336.19 523.068 336.097 523.103 336.004C523.161 335.848 523.218 335.692 523.274 335.535C523.318 335.414 523.362 335.292 523.404 335.169C523.446 335.051 523.486 334.932 523.526 334.814C523.563 334.705 523.599 334.596 523.635 334.488C523.689 334.322 523.744 334.157 523.797 333.99C523.819 333.921 523.839 333.852 523.86 333.782C523.916 333.602 523.972 333.421 524.026 333.239C524.048 333.167 524.068 333.095 524.089 333.023C524.218 332.577 524.342 332.127 524.458 331.673C524.479 331.592 524.498 331.51 524.519 331.429C524.697 330.714 524.86 329.99 525.005 329.256C525.025 329.155 525.043 329.054 525.062 328.952C525.095 328.782 525.128 328.612 525.158 328.441C525.174 328.35 525.188 328.26 525.204 328.169C525.284 327.706 525.359 327.241 525.426 326.771C525.438 326.684 525.448 326.598 525.46 326.511C525.83 323.787 525.978 320.947 525.882 318.011C525.854 317.656 525.821 317.297 525.782 316.934C525.647 315.665 525.446 314.351 525.175 313.009C525.097 312.626 525.014 312.24 524.925 311.852C524.657 310.688 524.336 309.506 523.959 308.315C523.833 307.918 523.701 307.52 523.562 307.121C523.217 306.125 522.831 305.124 522.403 304.124C522.147 303.525 521.876 302.925 521.589 302.327C521.206 301.531 520.796 300.737 520.358 299.949C520.249 299.753 520.137 299.556 520.024 299.36C518.318 296.414 516.284 293.777 514.004 291.469C513.548 291.007 513.082 290.559 512.606 290.123C512.132 289.688 511.647 289.267 511.154 288.859C510.169 288.042 509.149 287.278 508.101 286.571C506.528 285.509 504.89 284.571 503.205 283.762C502.643 283.492 502.076 283.236 501.505 282.995C501.219 282.875 500.932 282.758 500.644 282.645C499.491 282.192 498.322 281.796 497.141 281.46C496.255 281.208 495.362 280.99 494.465 280.805C493.867 280.682 493.266 280.574 492.665 280.481Z" fill="white"/>
<path d="M484.942 538.971C493.294 546.167 504.115 550.512 517.173 550.512C529.903 550.512 540.596 546.512 549.469 540.589L521.114 736.454H456.217L484.942 538.971Z" fill="white"/>
<path d="M591.058 279.993C594.18 280.082 597.29 280.598 600.282 281.49C600.496 281.554 600.709 281.62 600.922 281.688C601.56 281.89 602.192 282.11 602.817 282.347C603.233 282.505 603.647 282.67 604.058 282.842C604.263 282.928 604.467 283.017 604.671 283.107C605.078 283.286 605.481 283.472 605.881 283.666C606.281 283.86 606.677 284.061 607.07 284.269C607.658 284.58 608.236 284.907 608.805 285.249C608.994 285.363 609.183 285.479 609.37 285.596C609.557 285.713 609.743 285.832 609.928 285.952C610.113 286.073 610.296 286.195 610.479 286.318C611.026 286.69 611.563 287.076 612.087 287.476C612.358 287.682 612.625 287.894 612.889 288.108C613.424 288.543 613.946 288.992 614.452 289.455C614.823 289.795 615.187 290.141 615.541 290.496C615.91 290.865 616.271 291.236 616.623 291.609C617.504 292.542 618.335 293.488 619.115 294.445C619.74 295.211 620.333 295.985 620.894 296.766C621.034 296.961 621.172 297.157 621.308 297.354C622.57 299.171 623.663 301.03 624.592 302.926C624.867 303.486 625.128 304.049 625.374 304.616C628.967 312.901 629.507 321.882 627.32 331.37C626.161 336.386 624.087 340.975 621.291 344.93C620.928 345.443 620.553 345.947 620.166 346.439C619.979 346.676 619.789 346.911 619.597 347.144C618.442 348.539 617.189 349.838 615.85 351.031C615.627 351.23 615.401 351.426 615.173 351.618C614.765 351.963 614.348 352.298 613.925 352.623C612.235 353.924 610.428 355.067 608.522 356.032C608.239 356.175 607.955 356.315 607.668 356.45C604.691 357.853 601.483 358.83 598.11 359.313C597.803 359.357 597.494 359.397 597.185 359.433C596.875 359.468 596.564 359.5 596.252 359.527C591.884 359.911 587.264 359.474 582.524 358.077C582.185 357.977 581.846 357.872 581.506 357.763C581.24 357.677 580.975 357.587 580.711 357.494C580.407 357.388 580.105 357.276 579.804 357.16C579.446 357.023 579.09 356.88 578.737 356.73C578.656 356.695 578.576 356.66 578.496 356.625C578.126 356.464 577.758 356.298 577.394 356.123C577.312 356.084 577.232 356.044 577.151 356.004C576.787 355.826 576.425 355.642 576.068 355.451C576.006 355.418 575.945 355.385 575.884 355.352C575.74 355.274 575.597 355.196 575.454 355.116C575.361 355.064 575.269 355.01 575.176 354.957C575.05 354.885 574.924 354.813 574.799 354.739C574.71 354.687 574.621 354.633 574.532 354.579C574.409 354.505 574.286 354.431 574.163 354.356C574.093 354.312 574.024 354.268 573.954 354.224C573.817 354.137 573.679 354.05 573.542 353.962C573.452 353.904 573.363 353.844 573.274 353.785C573.155 353.707 573.037 353.629 572.919 353.549C572.866 353.513 572.813 353.476 572.76 353.44C572.606 353.334 572.452 353.229 572.3 353.121C572.239 353.078 572.178 353.033 572.117 352.989C571.986 352.895 571.854 352.8 571.724 352.704C571.633 352.637 571.543 352.569 571.452 352.501C571.346 352.421 571.24 352.341 571.134 352.26C571.04 352.188 570.948 352.115 570.855 352.042C570.739 351.951 570.623 351.86 570.508 351.768C570.447 351.718 570.386 351.668 570.324 351.618C570.202 351.519 570.08 351.419 569.959 351.318C569.883 351.255 569.807 351.19 569.732 351.126C569.621 351.032 569.511 350.939 569.402 350.844C569.305 350.76 569.21 350.676 569.114 350.592C569.031 350.518 568.947 350.444 568.864 350.369C568.76 350.275 568.656 350.18 568.553 350.085C568.474 350.012 568.395 349.94 568.317 349.866C568.216 349.772 568.116 349.677 568.016 349.581C567.93 349.499 567.844 349.415 567.758 349.332C567.665 349.242 567.573 349.151 567.481 349.06C567.396 348.976 567.312 348.892 567.228 348.807C567.144 348.722 567.061 348.637 566.978 348.552C566.866 348.436 566.754 348.32 566.643 348.203C566.605 348.163 566.568 348.123 566.53 348.083C566.408 347.953 566.285 347.822 566.164 347.69C566.105 347.625 566.046 347.56 565.988 347.495C565.879 347.375 565.771 347.254 565.664 347.133C565.604 347.064 565.543 346.995 565.483 346.926C565.385 346.814 565.289 346.703 565.193 346.59C565.113 346.497 565.034 346.403 564.955 346.309C564.872 346.209 564.789 346.11 564.707 346.01C564.628 345.913 564.549 345.816 564.47 345.718C564.392 345.621 564.314 345.524 564.237 345.427C564.146 345.312 564.057 345.197 563.967 345.081C563.916 345.016 563.866 344.95 563.816 344.885C563.727 344.769 563.639 344.654 563.552 344.537C563.464 344.42 563.377 344.303 563.29 344.185C563.224 344.095 563.159 344.004 563.094 343.913C563.017 343.806 562.939 343.698 562.863 343.59C562.792 343.491 562.723 343.391 562.654 343.291C562.582 343.188 562.511 343.084 562.44 342.98C562.366 342.871 562.293 342.763 562.22 342.654C562.157 342.56 562.095 342.464 562.032 342.369C561.958 342.257 561.885 342.144 561.812 342.03C561.747 341.93 561.684 341.83 561.62 341.73C561.548 341.615 561.475 341.5 561.404 341.384C561.331 341.266 561.259 341.149 561.188 341.03C561.129 340.933 561.07 340.835 561.012 340.737C560.946 340.626 560.881 340.514 560.816 340.402C560.756 340.3 560.696 340.197 560.637 340.094C560.561 339.96 560.484 339.826 560.409 339.691C560.36 339.603 560.312 339.514 560.263 339.425C560.198 339.306 560.133 339.188 560.07 339.068C560.009 338.956 559.949 338.844 559.89 338.731C559.828 338.612 559.767 338.492 559.705 338.373C559.652 338.27 559.598 338.167 559.546 338.064C559.484 337.94 559.423 337.816 559.363 337.692C559.309 337.584 559.255 337.475 559.202 337.365C559.142 337.24 559.084 337.115 559.025 336.989C558.97 336.873 558.915 336.757 558.862 336.64C558.807 336.521 558.754 336.402 558.7 336.282C558.652 336.175 558.604 336.068 558.557 335.96C558.5 335.831 558.444 335.701 558.389 335.571C558.342 335.463 558.296 335.354 558.25 335.245C558.212 335.153 558.174 335.06 558.136 334.967C558.073 334.812 558.009 334.658 557.947 334.502C557.909 334.406 557.873 334.309 557.835 334.213C557.786 334.087 557.737 333.961 557.69 333.835C557.637 333.696 557.586 333.557 557.535 333.418C557.498 333.316 557.46 333.213 557.423 333.11C557.369 332.959 557.316 332.808 557.264 332.656C557.233 332.567 557.201 332.478 557.171 332.388C557.105 332.193 557.042 331.997 556.979 331.801C556.962 331.749 556.944 331.697 556.928 331.646C556.865 331.446 556.803 331.246 556.742 331.046C556.731 331.008 556.719 330.97 556.707 330.932C556.588 330.533 556.475 330.132 556.367 329.73C556.27 329.367 556.176 329.003 556.088 328.638C555.973 328.159 555.866 327.678 555.767 327.194C555.763 327.175 555.759 327.155 555.755 327.136C555.722 326.971 555.69 326.806 555.658 326.641C555.639 326.541 555.62 326.442 555.602 326.343C555.579 326.218 555.557 326.092 555.535 325.967C555.469 325.588 555.407 325.208 555.352 324.827C555.329 324.669 555.309 324.511 555.287 324.353C555.101 322.965 554.981 321.565 554.937 320.159C554.86 315.586 555.305 311.307 556.287 307.352C556.373 307.006 556.462 306.662 556.556 306.32C558.16 300.515 560.965 295.436 565.036 291.183C565.816 290.368 566.643 289.584 567.516 288.83C568.743 287.772 570.062 286.775 571.475 285.841C572.146 285.398 572.839 284.969 573.552 284.555C574.341 284.096 575.157 283.654 575.998 283.231V283.243H576.023C576.641 282.932 577.266 282.644 577.898 282.379C578.319 282.202 578.743 282.035 579.169 281.879C580.022 281.566 580.884 281.294 581.754 281.061C581.972 281.002 582.19 280.946 582.408 280.893C582.845 280.786 583.283 280.688 583.723 280.601C584.163 280.513 584.605 280.435 585.047 280.366C585.489 280.297 585.933 280.238 586.377 280.188C587.488 280.062 588.603 279.994 589.719 279.982C590.165 279.977 590.612 279.981 591.058 279.993Z" fill="black" fill-opacity="0.56"/>
<path d="M468.4 285.963C475.558 280.862 484.244 279.18 492.664 280.481C493.266 280.573 493.866 280.682 494.464 280.805C495.361 280.99 496.254 281.208 497.14 281.46C498.321 281.796 499.491 282.191 500.643 282.645C500.931 282.758 501.218 282.875 501.504 282.995C502.076 283.236 502.643 283.492 503.204 283.762C504.889 284.571 506.527 285.509 508.1 286.57C509.148 287.278 510.168 288.042 511.154 288.858C511.646 289.267 512.131 289.688 512.606 290.123C513.081 290.558 513.547 291.007 514.003 291.469C516.283 293.777 518.317 296.414 520.024 299.359C520.137 299.556 520.248 299.752 520.358 299.949C520.796 300.737 521.206 301.531 521.588 302.327C521.875 302.925 522.146 303.524 522.403 304.124C522.83 305.124 523.216 306.124 523.562 307.121C523.7 307.52 523.833 307.918 523.958 308.315C524.335 309.506 524.656 310.688 524.924 311.852C525.013 312.24 525.096 312.625 525.174 313.009C525.446 314.351 525.647 315.665 525.781 316.934C525.82 317.296 525.853 317.656 525.881 318.011C525.977 320.947 525.829 323.787 525.459 326.511C525.447 326.597 525.437 326.684 525.425 326.771C525.359 327.24 525.283 327.706 525.203 328.169C525.188 328.26 525.174 328.35 525.157 328.441C525.127 328.612 525.094 328.782 525.062 328.952C525.042 329.054 525.024 329.155 525.004 329.256C524.859 329.99 524.696 330.714 524.518 331.429C524.497 331.51 524.478 331.592 524.457 331.673C524.341 332.127 524.218 332.577 524.088 333.023C524.067 333.095 524.047 333.167 524.026 333.238C523.972 333.42 523.916 333.602 523.86 333.782C523.838 333.852 523.818 333.921 523.796 333.99C523.743 334.157 523.689 334.322 523.634 334.487C523.598 334.596 523.562 334.705 523.526 334.814C523.485 334.932 523.445 335.051 523.404 335.169C523.361 335.291 523.317 335.414 523.274 335.535C523.217 335.692 523.16 335.848 523.102 336.004C523.067 336.097 523.032 336.19 522.996 336.282C522.938 336.436 522.877 336.589 522.817 336.742C522.784 336.825 522.753 336.907 522.72 336.989C522.652 337.158 522.582 337.327 522.512 337.494C522.475 337.583 522.437 337.671 522.4 337.759C522.336 337.907 522.272 338.054 522.207 338.201C522.178 338.268 522.149 338.334 522.119 338.4C522.044 338.568 521.968 338.734 521.891 338.9C521.849 338.989 521.807 339.079 521.765 339.168C521.698 339.308 521.631 339.448 521.563 339.587C521.514 339.688 521.464 339.788 521.414 339.888C521.351 340.014 521.287 340.139 521.223 340.265C521.167 340.374 521.11 340.484 521.053 340.593C520.976 340.74 520.897 340.885 520.819 341.03C520.782 341.099 520.745 341.167 520.707 341.234C520.63 341.375 520.552 341.516 520.473 341.655C520.427 341.737 520.38 341.818 520.333 341.9C520.239 342.064 520.143 342.227 520.046 342.389C520.013 342.445 519.979 342.502 519.946 342.558C519.851 342.715 519.754 342.87 519.657 343.025C519.614 343.094 519.571 343.163 519.528 343.232C519.45 343.353 519.374 343.475 519.295 343.596C519.226 343.702 519.156 343.808 519.086 343.913C519.001 344.041 518.915 344.168 518.828 344.295C518.786 344.357 518.745 344.418 518.702 344.48C518.598 344.63 518.493 344.781 518.387 344.93C518.347 344.986 518.306 345.042 518.266 345.098C518.156 345.249 518.046 345.4 517.934 345.55C517.911 345.58 517.89 345.611 517.867 345.641C517.738 345.814 517.605 345.984 517.473 346.154C517.433 346.206 517.392 346.258 517.352 346.31C517.254 346.434 517.155 346.558 517.055 346.682C516.972 346.784 516.889 346.885 516.806 346.986C516.735 347.072 516.664 347.157 516.593 347.242C516.515 347.334 516.437 347.426 516.359 347.517C516.256 347.636 516.152 347.755 516.047 347.873C516.002 347.924 515.956 347.975 515.91 348.026C515.793 348.158 515.675 348.289 515.556 348.419C515.509 348.47 515.461 348.521 515.413 348.572C515.276 348.72 515.137 348.867 514.996 349.012C514.975 349.034 514.954 349.055 514.933 349.076C514.785 349.228 514.637 349.379 514.487 349.528C514.455 349.56 514.424 349.592 514.392 349.623C514.262 349.752 514.13 349.879 513.998 350.006C513.918 350.083 513.837 350.158 513.756 350.233C513.653 350.33 513.551 350.427 513.447 350.522C513.395 350.57 513.342 350.617 513.289 350.665C513.141 350.799 512.992 350.931 512.842 351.063C512.815 351.086 512.788 351.11 512.761 351.134C512.613 351.262 512.464 351.389 512.315 351.515C512.236 351.581 512.156 351.646 512.076 351.712C511.961 351.807 511.845 351.902 511.729 351.996C511.66 352.052 511.589 352.106 511.52 352.161C511.395 352.26 511.269 352.359 511.143 352.456C511.07 352.512 510.996 352.567 510.922 352.623C510.788 352.725 510.653 352.826 510.517 352.926C510.476 352.956 510.435 352.986 510.394 353.016C510.238 353.129 510.08 353.242 509.922 353.353C509.856 353.399 509.79 353.444 509.724 353.489C509.584 353.586 509.444 353.683 509.302 353.778C509.245 353.817 509.187 353.854 509.13 353.892C508.978 353.993 508.825 354.094 508.671 354.192C508.601 354.237 508.53 354.281 508.459 354.325C508.323 354.411 508.187 354.496 508.05 354.579C507.984 354.619 507.919 354.659 507.853 354.698C507.48 354.923 507.102 355.141 506.719 355.352C506.683 355.371 506.647 355.391 506.611 355.41C506.207 355.631 505.8 355.845 505.386 356.051C505.316 356.086 505.245 356.119 505.175 356.153C505.014 356.232 504.852 356.311 504.689 356.388C504.645 356.409 504.6 356.429 504.556 356.449C503.217 357.072 501.829 357.621 500.391 358.086C499.258 358.45 498.107 358.741 496.944 358.969C496.848 358.987 496.754 359.008 496.658 359.025C496.565 359.043 496.471 359.058 496.377 359.074C496.268 359.094 496.159 359.114 496.05 359.132C495.91 359.155 495.769 359.177 495.628 359.198C495.56 359.209 495.492 359.22 495.423 359.23C495.256 359.254 495.088 359.275 494.92 359.297C494.882 359.302 494.844 359.308 494.806 359.313C494.635 359.334 494.464 359.353 494.292 359.371C494.251 359.376 494.209 359.38 494.167 359.385C493.989 359.403 493.81 359.42 493.631 359.436C493.601 359.438 493.571 359.442 493.541 359.444C492.95 359.494 492.357 359.527 491.763 359.545C491.714 359.546 491.665 359.549 491.615 359.55C491.427 359.555 491.238 359.558 491.049 359.56C491.036 359.56 491.023 359.56 491.01 359.56C490.841 359.561 490.672 359.561 490.503 359.56C490.445 359.559 490.386 359.558 490.327 359.558C490.171 359.556 490.014 359.552 489.858 359.548C489.807 359.547 489.757 359.546 489.706 359.544C489.558 359.539 489.409 359.534 489.261 359.527C489.19 359.524 489.119 359.521 489.048 359.518C488.918 359.511 488.788 359.503 488.657 359.495C488.559 359.489 488.461 359.483 488.363 359.476C488.264 359.469 488.165 359.461 488.066 359.453C487.961 359.445 487.855 359.437 487.75 359.428C487.62 359.416 487.49 359.404 487.361 359.391C487.278 359.382 487.195 359.374 487.113 359.365C486.979 359.351 486.845 359.335 486.711 359.319C486.637 359.311 486.563 359.302 486.488 359.293C486.346 359.275 486.205 359.256 486.063 359.236C485.983 359.226 485.904 359.215 485.824 359.203C485.717 359.188 485.61 359.172 485.502 359.155C485.393 359.139 485.284 359.122 485.175 359.105C485.041 359.083 484.907 359.06 484.774 359.036C484.707 359.025 484.64 359.013 484.573 359.001C484.453 358.979 484.332 358.958 484.212 358.935C484.108 358.915 484.004 358.895 483.9 358.874C483.777 358.85 483.655 358.825 483.533 358.799C483.45 358.781 483.366 358.763 483.282 358.745C483.16 358.719 483.037 358.691 482.914 358.663C482.826 358.643 482.738 358.622 482.651 358.602C482.526 358.572 482.401 358.543 482.277 358.512C482.18 358.488 482.084 358.464 481.988 358.44C481.891 358.415 481.794 358.39 481.697 358.364C481.582 358.334 481.466 358.302 481.351 358.271C481.246 358.242 481.14 358.212 481.035 358.183C480.942 358.156 480.848 358.129 480.754 358.102C480.639 358.068 480.524 358.035 480.409 358C480.308 357.969 480.207 357.938 480.106 357.906C480.006 357.875 479.906 357.844 479.806 357.812C479.698 357.777 479.59 357.742 479.483 357.706C479.38 357.672 479.277 357.638 479.174 357.603C479.075 357.569 478.977 357.535 478.878 357.501C478.768 357.463 478.658 357.423 478.548 357.384C478.451 357.349 478.355 357.314 478.258 357.278C478.152 357.24 478.047 357.2 477.942 357.16C477.826 357.116 477.71 357.072 477.594 357.026C477.525 356.999 477.455 356.973 477.386 356.945C477.257 356.894 477.129 356.843 477 356.79C476.901 356.749 476.801 356.709 476.702 356.667C476.624 356.634 476.547 356.601 476.469 356.567C476.334 356.51 476.2 356.453 476.066 356.394C475.993 356.362 475.921 356.329 475.849 356.297C475.743 356.249 475.636 356.202 475.53 356.153C475.423 356.104 475.315 356.054 475.207 356.004C475.109 355.958 475.01 355.911 474.912 355.864C474.823 355.822 474.735 355.778 474.646 355.734C474.54 355.683 474.435 355.632 474.33 355.579C474.23 355.529 474.13 355.478 474.03 355.427C473.932 355.377 473.834 355.327 473.736 355.275C473.649 355.23 473.563 355.185 473.477 355.139C473.364 355.079 473.251 355.018 473.139 354.957C473.058 354.913 472.977 354.868 472.897 354.823C472.787 354.763 472.678 354.702 472.569 354.641C472.484 354.593 472.401 354.544 472.317 354.496C472.207 354.433 472.097 354.369 471.988 354.305C471.906 354.257 471.824 354.208 471.742 354.159C471.646 354.102 471.55 354.044 471.454 353.985C471.321 353.904 471.188 353.822 471.055 353.738C470.996 353.701 470.937 353.664 470.878 353.627C470.803 353.579 470.728 353.531 470.654 353.483C470.533 353.405 470.412 353.327 470.292 353.248C470.202 353.189 470.112 353.129 470.023 353.068C469.949 353.019 469.876 352.97 469.803 352.92C469.684 352.839 469.566 352.757 469.448 352.675C469.366 352.617 469.283 352.56 469.2 352.501C469.142 352.459 469.083 352.417 469.025 352.375C468.905 352.289 468.785 352.203 468.666 352.115C468.57 352.045 468.475 351.973 468.38 351.901C468.313 351.851 468.246 351.802 468.18 351.751C467.893 351.533 467.609 351.309 467.327 351.082C467.093 350.893 466.859 350.702 466.629 350.507C465.262 349.351 463.972 348.096 462.777 346.748L462.332 346.238C462.087 345.952 461.847 345.663 461.612 345.371C459.725 343.041 458.129 340.556 456.818 337.966C456.49 337.318 456.179 336.664 455.887 336.004C454.426 332.705 453.408 329.262 452.822 325.772C452.704 325.073 452.604 324.373 452.521 323.672C452.19 320.868 452.134 318.047 452.348 315.258C452.401 314.561 452.472 313.865 452.559 313.173C452.689 312.134 452.858 311.102 453.064 310.079C453.305 308.88 453.601 307.693 453.945 306.523C454.089 306.03 454.241 305.539 454.404 305.052C454.514 304.723 454.627 304.395 454.745 304.069C455.336 302.442 456.028 300.854 456.822 299.317C457.172 298.642 457.543 297.978 457.931 297.323C458.249 296.787 458.578 296.257 458.922 295.736C459.686 294.58 460.513 293.463 461.405 292.392C462.029 291.641 462.685 290.915 463.371 290.212C463.542 290.037 463.714 289.861 463.889 289.689C464.084 289.496 464.283 289.307 464.483 289.118C464.823 288.798 465.169 288.483 465.523 288.175C465.717 288.006 465.913 287.838 466.111 287.673C466.65 287.222 467.204 286.785 467.774 286.362C467.972 286.215 468.172 286.069 468.373 285.926V285.939H468.399L468.4 285.963Z" fill="black" fill-opacity="0.56"/>
<path d="M525.998 95.0929C614.32 94.2967 708.183 121.992 779.118 175.011C851.532 229.134 902.3 312.319 890.177 414.92L889.932 417.081C884.651 462.289 871.442 496.499 851.421 524.743C832.127 551.963 807.903 571.226 788.769 586.818L788.768 586.817C750.687 617.852 708.316 635.447 691.001 645.096C680.86 650.747 676.377 654.518 673.821 657.571C671.845 659.931 669.236 663.936 667.563 673.323L667.564 673.324C663.018 698.844 655.587 749.942 649.169 795.672C645.991 818.318 643.107 839.312 641.018 854.649C639.973 862.315 639.128 868.563 638.544 872.891C638.252 875.054 638.026 876.738 637.873 877.878C637.797 878.448 637.737 878.883 637.698 879.174C637.679 879.319 637.665 879.429 637.655 879.501C637.651 879.537 637.646 879.565 637.644 879.583C637.643 879.592 637.642 879.599 637.642 879.603C637.642 879.604 637.641 879.606 637.641 879.607L582.049 869.382L582.96 862.609C584.732 849.473 588.896 818.786 593.726 784.389H365.901C357.686 839.159 353.492 869.316 353.483 869.382H582.049L637.642 879.608C634.097 906.095 611.958 925.305 584.98 925.305H356.413C339.72 925.305 323.506 917.867 312.195 905.021C300.883 892.174 295.652 875.257 297.928 858.883L353.483 869.382C298.174 858.93 297.929 858.882 297.928 858.881C297.928 858.88 297.929 858.878 297.929 858.877C297.929 858.874 297.929 858.871 297.93 858.866C297.931 858.857 297.933 858.843 297.936 858.826C297.94 858.793 297.947 858.744 297.956 858.681C297.974 858.554 298 858.369 298.034 858.125C298.103 857.637 298.203 856.913 298.337 855.96C298.606 854.053 299.007 851.223 299.538 847.502C300.6 840.06 302.184 829.05 304.284 814.721C308.433 786.421 314.593 745.169 322.709 692.87C325.061 663.949 326.451 646.728 325.086 633.424C324.58 628.494 323.82 626.033 323.465 625.099C317.17 620.401 264.252 586.581 227.304 545.493C185.035 498.489 148.032 429.108 164.277 338.617C182.09 239.34 239.74 176.927 310.375 140.817C378.855 105.81 458.636 95.701 525.998 95.0929ZM834.432 405.945C853.282 249.07 684.139 149.62 529.434 151.015L526.469 151.048C400.71 152.744 248.303 190.668 219.494 351.235C194.864 488.445 327.889 558.637 357.62 582.571C387.352 606.506 382.946 646.888 378.447 702.239C376.585 714.228 374.826 725.641 373.169 736.454H423.599L462.933 466.04C464.168 457.552 472.014 451.94 480.633 453.383C489.249 454.825 495.507 462.793 494.752 471.358C494.751 471.366 494.751 471.376 494.75 471.389C494.745 471.455 494.736 471.58 494.724 471.758C494.7 472.115 494.667 472.685 494.636 473.438C494.574 474.947 494.522 477.164 494.58 479.845C494.699 485.305 495.262 492.222 496.871 498.853C498.526 505.67 500.952 510.788 503.82 513.954C506.116 516.49 509.308 518.556 515.497 518.556C528.474 518.556 539.587 508.606 548.521 493.277C552.699 486.107 555.753 478.815 557.768 473.247C558.766 470.488 559.489 468.211 559.952 466.661C560.183 465.888 560.349 465.298 560.45 464.927C560.501 464.742 560.536 464.611 560.555 464.538C560.564 464.503 560.57 464.481 560.572 464.474C562.63 456.343 570.809 451.576 579.18 453.635C587.559 455.696 593.189 463.872 591.98 472.225L553.729 736.454H600.567C604.946 706.349 609.237 678.164 612.334 660.777C624.828 590.661 685.037 597.309 751.948 542.778C792.096 510.062 825.952 482.762 834.432 405.945ZM456.216 736.454H521.113L549.468 540.589C540.595 546.512 529.902 550.512 517.172 550.512C504.115 550.512 493.294 546.167 484.942 538.971L456.216 736.454Z" fill="black" fill-opacity="0.56"/>
</svg>
