<svg width="1020" height="1020" viewBox="0 0 1020 1020" fill="none" xmlns="http://www.w3.org/2000/svg">
<path d="M673.567 212L888.018 512.65L819.917 808.32H244.277L131.107 595.44L277.758 212H673.567ZM537.526 383.417C527.377 372.741 509.66 368.376 494.93 375.565H494.902V375.552C478.537 383.525 470.524 397.391 469.875 415.526C469.497 433.743 480.51 450.988 496.646 456.231C519.917 463.826 541.796 449.474 548.013 427.662C552.688 411.229 549.689 396.201 537.526 383.417ZM418.688 392.925C407.877 372.519 381.741 365.802 363.268 378.424V378.396H363.24V378.383C342.064 392.829 337.212 423.831 353.227 443.67C362.808 455.549 379.431 461.062 393.972 456.494C411.742 450.872 423.58 434.304 423.999 413.114C423.837 406.965 422.27 399.722 418.688 392.925Z" fill="white"/>
<path d="M494.93 375.565C509.66 368.376 527.377 372.741 537.526 383.417C549.689 396.201 552.688 411.229 548.013 427.662C541.796 449.474 519.917 463.826 496.645 456.231C480.51 450.988 469.496 433.743 469.875 415.526C470.524 397.391 478.537 383.525 494.902 375.552V375.565H494.93Z" fill="black" fill-opacity="0.56"/>
<path d="M363.267 378.424C381.741 365.802 407.877 372.519 418.688 392.925C422.269 399.722 423.837 406.965 423.999 413.114C423.58 434.304 411.742 450.872 393.972 456.494C379.431 461.062 362.808 455.549 353.226 443.67C337.212 423.831 342.064 392.829 363.24 378.383V378.396H363.267V378.424Z" fill="black" fill-opacity="0.56"/>
<path d="M673.567 156C691.665 156 708.648 164.746 719.158 179.48L933.608 480.131C942.917 493.182 946.187 509.597 942.589 525.219L874.488 820.889C868.633 846.309 846.002 864.32 819.917 864.32H244.277C223.569 864.32 204.551 852.892 194.83 834.606L81.66 621.727C74.0622 607.434 73.0205 590.554 78.8026 575.436L225.452 191.995L225.85 190.984C234.395 169.873 254.911 156 277.758 156H673.567ZM131.107 595.44L244.277 808.32H819.917L888.017 512.65L673.567 212H277.758L131.107 595.44Z" fill="black" fill-opacity="0.56"/>
</svg>
